<svg width="136" height="74" viewBox="0 0 136 74" fill="none" xmlns="http://www.w3.org/2000/svg">
<path d="M33.2699 28.7413H42.8402V30.4015L39.852 30.8507V42.0031H56.1606V30.8507L53.1918 30.4015V28.7413H62.7621V30.4015L59.8129 30.8507V56.0851L62.7621 56.5343V58.1945H53.1918V56.5343L56.1606 56.0851V44.3468H39.852V56.0851L42.8402 56.5343V58.1945H33.2699V56.5343L36.2387 56.0851V30.8507L33.2699 30.4015V28.7413ZM79.5952 36.3545C81.4353 36.3545 83.0086 36.7545 84.3152 37.5545C85.6486 38.3545 86.6619 39.4878 87.3553 40.9545C88.0752 42.3945 88.4352 44.0878 88.4352 46.0345V48.1545H73.7552C73.8086 50.5811 74.4219 52.4345 75.5952 53.7145C76.7952 54.9678 78.4619 55.5945 80.5952 55.5945C81.9552 55.5945 83.1552 55.4745 84.1952 55.2345C85.2619 54.9678 86.3552 54.5945 87.4752 54.1145V57.1945C86.3819 57.6745 85.3019 58.0211 84.2352 58.2345C83.1686 58.4745 81.9019 58.5945 80.4352 58.5945C78.4086 58.5945 76.6086 58.1811 75.0352 57.3545C73.4886 56.5278 72.2752 55.3011 71.3952 53.6745C70.5419 52.0211 70.1152 50.0078 70.1152 47.6345C70.1152 45.2878 70.5019 43.2745 71.2752 41.5945C72.0752 39.9145 73.1819 38.6211 74.5952 37.7145C76.0352 36.8078 77.7019 36.3545 79.5952 36.3545ZM79.5552 39.2345C77.8752 39.2345 76.5419 39.7811 75.5552 40.8745C74.5952 41.9411 74.0219 43.4345 73.8352 45.3545H84.7553C84.7553 44.1278 84.5686 43.0611 84.1952 42.1545C83.8219 41.2478 83.2486 40.5411 82.4752 40.0345C81.7286 39.5011 80.7552 39.2345 79.5552 39.2345ZM105.213 36.3945C107.827 36.3945 109.76 36.9678 111.013 38.1145C112.267 39.2611 112.893 41.0878 112.893 43.5945V58.1945H110.333L109.653 55.1545H109.493C108.88 55.9278 108.24 56.5811 107.573 57.1145C106.933 57.6211 106.187 57.9945 105.333 58.2345C104.507 58.4745 103.493 58.5945 102.293 58.5945C101.013 58.5945 99.8534 58.3678 98.8134 57.9145C97.8 57.4611 97 56.7678 96.4134 55.8345C95.8267 54.8745 95.5334 53.6745 95.5334 52.2345C95.5334 50.1011 96.3734 48.4611 98.0534 47.3145C99.7334 46.1411 102.32 45.5011 105.813 45.3945L109.453 45.2745V43.9945C109.453 42.2078 109.067 40.9678 108.293 40.2745C107.52 39.5811 106.427 39.2345 105.013 39.2345C103.893 39.2345 102.827 39.4078 101.813 39.7545C100.8 40.0745 99.8534 40.4478 98.9734 40.8745L97.8934 38.2345C98.8267 37.7278 99.9334 37.3011 101.213 36.9545C102.493 36.5811 103.827 36.3945 105.213 36.3945ZM106.253 47.8345C103.587 47.9411 101.733 48.3678 100.693 49.1145C99.68 49.8611 99.1734 50.9145 99.1734 52.2745C99.1734 53.4745 99.5334 54.3545 100.253 54.9145C101 55.4745 101.947 55.7545 103.093 55.7545C104.907 55.7545 106.413 55.2611 107.613 54.2745C108.813 53.2611 109.413 51.7145 109.413 49.6345V47.7145L106.253 47.8345ZM125.858 52.2179C125.858 54.8221 126.913 56.1241 129.022 56.1241C130.129 56.1241 131.203 55.6684 132.245 54.757L133.3 56.046C132.193 56.9575 131.171 57.6215 130.233 58.0382C129.296 58.4419 128.469 58.6437 127.753 58.6437C127.037 58.6437 126.34 58.4874 125.663 58.1749C124.999 57.8624 124.445 57.4132 124.003 56.8273C123.13 55.6945 122.694 54.0864 122.694 52.0031V41.1632H120.214V39.464L122.694 38.8781V36.2609L124.999 33.9562H125.858V38.8781H132.304V41.1632H125.858V52.2179Z" fill="#031926"/>
<g clip-path="url(#clip0_51_302)">
<path d="M3.34165 63.5462C2.13121 63.3707 1.33991 62.6415 0.550761 61.9301C0.323063 61.7242 0.298417 61.4361 0.443887 61.1182C1.29209 59.2628 2.11604 57.396 2.94956 55.5342C4.88396 51.2125 7.3878 47.1705 9.50158 42.9385C10.5946 40.7506 11.5442 38.4964 12.5874 36.2855C13.4012 34.5597 14.2649 32.857 15.0897 31.1366C15.1842 30.939 15.2826 30.6344 15.1935 30.4816C14.5502 29.3839 14.864 28.3218 15.3486 27.325C16.2881 25.3923 18.9366 24.7033 20.8235 25.836C20.9176 25.8925 21.003 25.9613 21.0909 26.0255C22.4013 26.9928 22.7953 30.2739 21.2021 31.3644C20.7324 31.6866 20.2411 31.9876 19.7295 32.2414C19.4689 32.371 19.2944 32.4946 19.1786 32.7725C17.0469 37.8759 14.9582 42.9967 12.7329 48.0621C11.6765 50.4674 10.386 52.7784 9.14729 55.105C7.75687 57.7163 6.30645 60.2968 4.88125 62.8902C4.81594 63.0081 4.74713 63.1239 4.67002 63.235C4.30189 63.7658 4.26951 63.7748 3.59484 63.5991C3.48873 63.5726 3.37873 63.5555 3.3426 63.5478L3.34165 63.5462ZM16.0607 31.2482C15.139 33.3145 14.2536 35.3002 13.3672 37.2844C12.3043 39.6629 11.3157 42.0746 10.1626 44.4122C7.95241 48.8953 5.64831 53.3364 3.38573 57.7959C2.77931 58.9901 2.18185 60.1865 1.5485 61.4464C1.92203 61.6731 2.25887 61.8787 2.65601 62.1191C2.98352 61.237 3.26356 60.4312 3.58193 59.6404C4.67562 56.9191 6.14121 54.3741 7.54997 51.8016C8.79123 49.5375 10.1254 47.3139 11.2486 44.9965C12.9584 41.4668 14.5271 37.8727 16.1468 34.302C16.4978 33.5272 16.8107 32.7363 17.146 31.943C16.7611 31.6977 16.4428 31.4941 16.0617 31.2498L16.0607 31.2482ZM3.18333 62.2592C3.65758 62.4452 3.88392 62.4347 4.0801 62.0334C5.33611 59.4767 6.54107 56.8913 7.91134 54.3922C11.1643 48.462 13.9911 42.3447 16.687 36.1655C16.9979 35.4544 17.2324 34.7124 17.5024 33.9858C17.2409 34.1705 17.0918 34.3939 16.9807 34.6335C15.832 37.1196 14.6746 39.6023 13.5479 42.0979C11.8328 45.895 9.7477 49.5138 7.84296 53.2186C6.30675 56.2056 4.76448 59.1899 3.18205 62.2589L3.18333 62.2592ZM19.026 26.5803C18.293 26.4242 17.5058 26.8079 17.1859 27.4759C17.0155 27.831 16.9317 28.1788 17.2348 28.5169C17.5443 28.8618 17.9372 28.9431 18.357 28.7994C18.9188 28.6082 19.3609 28.2461 19.6323 27.7306C19.9024 27.2148 19.6194 26.7079 19.027 26.5818L19.026 26.5803Z" fill="black"/>
<path d="M20.1264 15.8034C20.9113 14.8462 21.392 13.9419 21.6634 12.9575C22.124 11.2789 22.5632 9.59359 22.9234 7.89247C23.2129 6.52533 23.5172 5.16977 24.0889 3.88519C24.2733 3.4717 24.4976 3.06691 24.7641 2.69899C24.9624 2.42335 25.2349 2.1663 25.7073 2.28205C25.6714 2.41793 25.6719 2.56031 25.6035 2.65382C25.1123 3.325 25.0315 4.04239 25.1355 4.86008C25.3651 6.67609 25.8217 8.43832 26.3077 10.1974C26.5643 11.1284 26.8251 12.0592 27.0728 12.9932C27.4468 14.4028 27.6924 15.8237 27.3846 17.4247C27.9677 17.0242 28.4362 16.6911 28.9168 16.3742C29.4416 16.0289 29.9713 15.6862 30.5118 15.3645C31.0294 15.0569 31.5553 14.7593 32.0958 14.4891C32.6141 14.2304 33.0487 13.7782 33.879 13.7676C33.6401 14.1292 33.5245 14.4375 33.2997 14.6222C32.0104 15.6821 31.4589 17.1325 31.0032 18.6279C30.7222 19.5506 30.531 20.4998 30.2589 21.4248C29.9718 22.4014 29.6643 23.3728 29.3191 24.3322C28.6923 26.0771 27.4783 27.3575 25.8308 28.2513C25.1322 28.6295 24.3438 28.6571 23.5693 28.5289C23.0117 28.4366 22.8928 28.113 23.2322 27.6804C23.5984 27.2137 23.9936 26.7661 24.3916 26.3232C25.0026 25.6425 25.4426 24.8966 25.4805 23.8984C24.4761 24.1288 23.6698 24.8369 22.4653 24.8552C22.662 24.3183 22.7711 23.911 22.9543 23.538C23.4956 22.4408 23.6926 21.3047 23.4432 20.1041C23.4117 19.9553 23.3514 19.8124 23.2781 19.5846C22.2314 20.9898 20.9505 22.0387 19.5372 22.9438C19.4453 23.0025 19.3749 23.1139 19.2785 23.1385C19.1048 23.1819 18.8707 23.2471 18.7492 23.1705C18.6287 23.0955 18.5663 22.8573 18.5679 22.6917C18.5725 22.2674 18.6382 21.8439 18.654 21.4185C18.6599 21.2672 18.592 21.1118 18.5333 20.8442C18.1272 21.189 17.7831 21.4689 17.4515 21.7639C16.4345 22.6708 15.3973 23.566 14.8621 24.8466C14.6659 25.3151 14.5527 25.8149 14.3625 26.2862C14.2798 26.4907 14.1191 26.7785 13.9538 26.8055C13.7773 26.8337 13.4865 26.6449 13.3629 26.473C12.4927 25.2644 12.076 23.9284 12.3009 22.4502C12.5045 21.109 12.9717 19.8641 13.7602 18.7339C14.6703 17.4275 15.576 16.1173 16.451 14.7888C16.8061 14.2508 17.1338 13.6822 17.3739 13.0891C17.6221 12.4756 17.7605 11.8187 17.92 11.1751C17.9891 10.8934 17.9309 10.5311 18.3185 10.4675C18.6975 10.4057 18.8172 10.7466 18.9557 11.0012C19.1093 11.2861 19.2802 11.5726 19.3656 11.8785C19.7111 13.1124 20.2543 14.3101 20.1315 15.8047L20.1264 15.8034ZM24.2526 7.02165C24.0907 8.06117 23.9547 8.92015 23.8225 9.78009C23.5606 11.4808 23.157 13.15 22.4246 14.717C21.7124 16.239 20.5813 17.34 18.7096 17.7416C19.1064 16.0773 19.2317 14.4965 18.5579 13.0091C17.8373 14.2432 17.15 15.4909 16.3918 16.6971C15.8477 17.5631 15.2024 18.3683 14.6181 19.2111C13.8525 20.3166 13.3475 21.5192 13.2367 22.86C13.1726 23.6276 13.2885 24.364 13.646 25.1254C13.744 24.9971 13.8089 24.9423 13.8349 24.875C14.3549 23.5024 15.2932 22.4401 16.438 21.5191C16.9887 21.0762 17.5216 20.6078 18.0233 20.1131C18.5263 19.6188 18.8279 19.6127 19.1349 20.2349C19.3577 20.6859 19.4868 21.1819 19.6794 21.7163C20.7187 21.1271 21.5582 20.3246 22.3633 19.487C22.8635 18.967 23.2108 18.3809 23.1881 17.6271C23.185 17.4998 23.401 17.2813 23.5377 17.2642C23.6703 17.2474 23.8749 17.4066 23.9689 17.5408C24.0718 17.6878 24.0944 17.891 24.1375 18.0731C24.2745 18.6475 24.4102 19.2215 24.5373 19.7974C24.7895 20.946 24.8274 22.0803 24.3089 23.1794C24.2836 23.2336 24.3158 23.3128 24.3257 23.4404C24.9387 23.2002 25.4682 22.9351 25.8482 22.4521C26.0133 22.2405 26.2431 22.0676 26.471 22.242C26.6252 22.3596 26.7161 22.6445 26.7092 22.8509C26.6933 23.3027 26.5813 23.7515 26.5369 24.2027C26.472 24.8806 26.2829 25.5128 25.8883 26.0818C25.6214 26.4667 25.3664 26.8586 25.0279 27.3651C26.1373 27.0056 26.8712 26.4216 27.3907 25.6021C27.9577 24.7062 28.3337 23.7335 28.5309 22.6949C28.8157 21.1962 29.077 19.6889 29.7246 18.2824C29.9672 17.7571 30.2098 17.2317 30.5179 16.5674C28.5528 17.4817 27.1551 18.8069 25.8548 20.2896C25.8363 19.7567 25.8541 19.2567 25.9522 18.7728C26.3217 16.9542 26.2045 15.1716 25.7338 13.3703C25.2189 11.4011 24.8411 9.39783 24.4022 7.4095C24.3869 7.33849 24.3498 7.27256 24.2488 7.02069L24.2526 7.02165Z" fill="#EE6C4D"/>
</g>
<defs>
<clipPath id="clip0_51_302">
<rect width="20.2258" height="64.8881" fill="white" transform="matrix(0.970006 0.243081 -0.25584 0.966719 16.601 0)"/>
</clipPath>
</defs>
</svg>
