<svg width="225" height="33" viewBox="0 0 225 33" fill="none" xmlns="http://www.w3.org/2000/svg">
<path d="M224.707 18.1008C225.098 17.7103 225.098 17.0771 224.707 16.6866L218.343 10.3226C217.953 9.93208 217.319 9.93208 216.929 10.3226C216.538 10.7131 216.538 11.3463 216.929 11.7368L222.586 17.3937L216.929 23.0505C216.538 23.4411 216.538 24.0742 216.929 24.4647C217.319 24.8553 217.953 24.8553 218.343 24.4647L224.707 18.1008ZM198.66 17.3937V18.3937H224V17.3937V16.3937H198.66V17.3937Z" fill="#031926"/>
<path d="M7.49023 24.7812C8.11654 24.7812 8.68359 24.722 9.19141 24.6035C9.70768 24.4766 10.152 24.2819 10.5244 24.0195C11.32 23.4694 11.7178 22.6654 11.7178 21.6074C11.7178 20.7103 11.4258 19.974 10.8418 19.3984C10.224 18.806 9.22103 18.2093 7.83301 17.6084C6.45345 16.999 5.39974 16.4574 4.67188 15.9834C3.95247 15.501 3.38542 15.0143 2.9707 14.5234C2.21745 13.6602 1.84082 12.6149 1.84082 11.3877C1.84082 9.96582 2.45443 8.79362 3.68164 7.87109C4.82422 6.99935 6.20801 6.56348 7.83301 6.56348C9.111 6.56348 10.389 6.79622 11.667 7.26172C12.2002 7.47331 12.6826 7.70605 13.1143 7.95996L12.6699 11.3496H11.6035C11.6035 10.1816 11.2861 9.33529 10.6514 8.81055C10.0166 8.27734 9.09831 8.01074 7.89648 8.01074C6.23763 8.01074 5.10352 8.55241 4.49414 9.63574C4.29948 9.99121 4.20215 10.389 4.20215 10.8291C4.20215 11.2692 4.26562 11.667 4.39258 12.0225C4.51953 12.3695 4.76497 12.7122 5.12891 13.0508C5.83984 13.7363 7.17708 14.4896 9.14062 15.3105C11.8828 16.4785 13.4824 17.8581 13.9395 19.4492C14.0749 19.9486 14.1426 20.4818 14.1426 21.0488C14.1426 21.6074 14.0452 22.1406 13.8506 22.6484C13.6644 23.1478 13.4062 23.5964 13.0762 23.9941C12.7461 24.3835 12.361 24.722 11.9209 25.0098C11.4893 25.2975 11.028 25.5345 10.5371 25.7207C8.36198 26.5671 6.07682 26.4993 3.68164 25.5176C2.8099 25.1536 2.03971 24.7093 1.37109 24.1846L1.9043 20.541H2.9834C2.9834 22.2422 3.52083 23.4271 4.5957 24.0957C5.33203 24.5527 6.29688 24.7812 7.49023 24.7812ZM19.7324 12.064V26H17.4444V12.064H19.7324ZM18.6144 6.838C18.961 6.838 19.2644 6.95933 19.5244 7.202C19.8017 7.42733 19.9404 7.79133 19.9404 8.294C19.9404 8.77933 19.8017 9.14333 19.5244 9.386C19.2644 9.62867 18.961 9.75 18.6144 9.75C18.233 9.75 17.9124 9.62867 17.6524 9.386C17.3924 9.14333 17.2624 8.77933 17.2624 8.294C17.2624 7.79133 17.3924 7.42733 17.6524 7.202C17.9124 6.95933 18.233 6.838 18.6144 6.838ZM29.0875 11.804C30.0062 11.804 30.8295 11.9773 31.5575 12.324C32.3028 12.6707 32.9355 13.1993 33.4555 13.91H33.5855L33.8975 12.064H35.7175V26.234C35.7175 27.5513 35.4922 28.652 35.0415 29.536C34.5908 30.4373 33.9062 31.1133 32.9875 31.564C32.0688 32.0147 30.8988 32.24 29.4775 32.24C28.4722 32.24 27.5448 32.162 26.6955 32.006C25.8635 31.8673 25.1182 31.6507 24.4595 31.356V29.25C24.9102 29.4753 25.4042 29.666 25.9415 29.822C26.4788 29.9953 27.0595 30.1253 27.6835 30.212C28.3075 30.2987 28.9488 30.342 29.6075 30.342C30.8035 30.342 31.7395 29.9867 32.4155 29.276C33.1088 28.5827 33.4555 27.6293 33.4555 26.416V25.87C33.4555 25.662 33.4642 25.3673 33.4815 24.986C33.4988 24.5873 33.5162 24.31 33.5335 24.154H33.4295C32.9442 24.8647 32.3375 25.3933 31.6095 25.74C30.8988 26.0867 30.0668 26.26 29.1135 26.26C27.3108 26.26 25.8982 25.6273 24.8755 24.362C23.8702 23.0967 23.3675 21.3287 23.3675 19.058C23.3675 17.5673 23.5928 16.2847 24.0435 15.21C24.5115 14.118 25.1702 13.2773 26.0195 12.688C26.8688 12.0987 27.8915 11.804 29.0875 11.804ZM29.3995 13.728C28.6195 13.728 27.9522 13.936 27.3975 14.352C26.8602 14.768 26.4442 15.3747 26.1495 16.172C25.8722 16.9693 25.7335 17.94 25.7335 19.084C25.7335 20.8 26.0455 22.1173 26.6695 23.036C27.3108 23.9373 28.2382 24.388 29.4515 24.388C30.1622 24.388 30.7688 24.3013 31.2715 24.128C31.7742 23.9373 32.1902 23.6513 32.5195 23.27C32.8488 22.8713 33.0915 22.3687 33.2475 21.762C33.4035 21.1553 33.4815 20.436 33.4815 19.604V19.058C33.4815 17.7927 33.3342 16.77 33.0395 15.99C32.7622 15.21 32.3202 14.638 31.7135 14.274C31.1068 13.91 30.3355 13.728 29.3995 13.728ZM46.8516 11.804C48.5156 11.804 49.7723 12.2113 50.6216 13.026C51.4709 13.8233 51.8956 15.1233 51.8956 16.926V26H49.6336V17.082C49.6336 15.9553 49.3823 15.1147 48.8796 14.56C48.3769 14.0053 47.5883 13.728 46.5136 13.728C44.9709 13.728 43.9049 14.1613 43.3156 15.028C42.7263 15.8947 42.4316 17.1427 42.4316 18.772V26H40.1436V12.064H41.9896L42.3276 13.962H42.4576C42.7696 13.4767 43.1509 13.078 43.6016 12.766C44.0696 12.4367 44.5809 12.194 45.1356 12.038C45.6903 11.882 46.2623 11.804 46.8516 11.804ZM76.5728 12.064V26H74.7008L74.3628 24.154H74.2588C73.9642 24.6393 73.5828 25.038 73.1148 25.35C72.6468 25.662 72.1355 25.8873 71.5808 26.026C71.0262 26.182 70.4455 26.26 69.8388 26.26C68.7295 26.26 67.7935 26.0867 67.0308 25.74C66.2855 25.376 65.7222 24.8213 65.3408 24.076C64.9595 23.3307 64.7688 22.3687 64.7688 21.19V12.064H67.0828V21.034C67.0828 22.1433 67.3342 22.9753 67.8368 23.53C68.3395 24.0847 69.1195 24.362 70.1768 24.362C71.2168 24.362 72.0315 24.1713 72.6208 23.79C73.2275 23.3913 73.6522 22.8193 73.8948 22.074C74.1548 21.3113 74.2848 20.3927 74.2848 19.318V12.064H76.5728ZM87.6271 11.804C89.3431 11.804 90.7211 12.402 91.7611 13.598C92.8184 14.794 93.3471 16.5967 93.3471 19.006C93.3471 20.5833 93.1044 21.918 92.6191 23.01C92.1511 24.0847 91.4838 24.8993 90.6171 25.454C89.7678 25.9913 88.7624 26.26 87.6011 26.26C86.8904 26.26 86.2578 26.1647 85.7031 25.974C85.1484 25.7833 84.6718 25.5407 84.2731 25.246C83.8918 24.934 83.5624 24.596 83.2851 24.232H83.1291C83.1638 24.5267 83.1984 24.8993 83.2331 25.35C83.2678 25.8007 83.2851 26.1907 83.2851 26.52V32.24H80.9971V12.064H82.8691L83.1811 13.962H83.2851C83.5624 13.5633 83.8918 13.1993 84.2731 12.87C84.6718 12.5407 85.1398 12.2807 85.6771 12.09C86.2318 11.8993 86.8818 11.804 87.6271 11.804ZM87.2111 13.728C86.2751 13.728 85.5211 13.91 84.9491 14.274C84.3771 14.6207 83.9611 15.1493 83.7011 15.86C83.4411 16.5707 83.3024 17.472 83.2851 18.564V19.006C83.2851 20.15 83.4064 21.1207 83.6491 21.918C83.8918 22.7153 84.2991 23.322 84.8711 23.738C85.4604 24.154 86.2578 24.362 87.2631 24.362C88.1124 24.362 88.8058 24.128 89.3431 23.66C89.8978 23.192 90.3051 22.5593 90.5651 21.762C90.8424 20.9473 90.9811 20.02 90.9811 18.98C90.9811 17.3853 90.6691 16.1113 90.0451 15.158C89.4384 14.2047 88.4938 13.728 87.2111 13.728ZM107.847 4.77344L109.04 5.34473L96.916 31.4717L95.71 30.9385L107.847 4.77344ZM117.127 6.85547V7.93457L115.223 8.22656V24.4766H122.18L122.929 21.6328H123.97L123.855 26H110.906V24.9209L112.836 24.6289V8.22656L110.906 7.93457V6.85547H117.127ZM139.476 19.006C139.476 20.1673 139.32 21.1987 139.008 22.1C138.714 22.984 138.28 23.738 137.708 24.362C137.154 24.986 136.469 25.4627 135.654 25.792C134.857 26.104 133.964 26.26 132.976 26.26C132.058 26.26 131.208 26.104 130.428 25.792C129.648 25.4627 128.972 24.986 128.4 24.362C127.828 23.738 127.378 22.984 127.048 22.1C126.736 21.1987 126.58 20.1673 126.58 19.006C126.58 17.4633 126.84 16.1633 127.36 15.106C127.88 14.0313 128.626 13.2167 129.596 12.662C130.567 12.09 131.72 11.804 133.054 11.804C134.32 11.804 135.429 12.09 136.382 12.662C137.353 13.2167 138.107 14.0313 138.644 15.106C139.199 16.1633 139.476 17.4633 139.476 19.006ZM128.946 19.006C128.946 20.098 129.085 21.0513 129.362 21.866C129.657 22.6633 130.108 23.2787 130.714 23.712C131.321 24.1453 132.092 24.362 133.028 24.362C133.964 24.362 134.736 24.1453 135.342 23.712C135.949 23.2787 136.391 22.6633 136.668 21.866C136.963 21.0513 137.11 20.098 137.11 19.006C137.11 17.8967 136.963 16.952 136.668 16.172C136.374 15.392 135.923 14.794 135.316 14.378C134.727 13.9447 133.956 13.728 133.002 13.728C131.581 13.728 130.55 14.196 129.908 15.132C129.267 16.068 128.946 17.3593 128.946 19.006ZM148.043 11.804C148.961 11.804 149.785 11.9773 150.513 12.324C151.258 12.6707 151.891 13.1993 152.411 13.91H152.541L152.853 12.064H154.673V26.234C154.673 27.5513 154.447 28.652 153.997 29.536C153.546 30.4373 152.861 31.1133 151.943 31.564C151.024 32.0147 149.854 32.24 148.433 32.24C147.427 32.24 146.5 32.162 145.651 32.006C144.819 31.8673 144.073 31.6507 143.415 31.356V29.25C143.865 29.4753 144.359 29.666 144.897 29.822C145.434 29.9953 146.015 30.1253 146.639 30.212C147.263 30.2987 147.904 30.342 148.563 30.342C149.759 30.342 150.695 29.9867 151.371 29.276C152.064 28.5827 152.411 27.6293 152.411 26.416V25.87C152.411 25.662 152.419 25.3673 152.437 24.986C152.454 24.5873 152.471 24.31 152.489 24.154H152.385C151.899 24.8647 151.293 25.3933 150.565 25.74C149.854 26.0867 149.022 26.26 148.069 26.26C146.266 26.26 144.853 25.6273 143.831 24.362C142.825 23.0967 142.323 21.3287 142.323 19.058C142.323 17.5673 142.548 16.2847 142.999 15.21C143.467 14.118 144.125 13.2773 144.975 12.688C145.824 12.0987 146.847 11.804 148.043 11.804ZM148.355 13.728C147.575 13.728 146.907 13.936 146.353 14.352C145.815 14.768 145.399 15.3747 145.105 16.172C144.827 16.9693 144.689 17.94 144.689 19.084C144.689 20.8 145.001 22.1173 145.625 23.036C146.266 23.9373 147.193 24.388 148.407 24.388C149.117 24.388 149.724 24.3013 150.227 24.128C150.729 23.9373 151.145 23.6513 151.475 23.27C151.804 22.8713 152.047 22.3687 152.203 21.762C152.359 21.1553 152.437 20.436 152.437 19.604V19.058C152.437 17.7927 152.289 16.77 151.995 15.99C151.717 15.21 151.275 14.638 150.669 14.274C150.062 13.91 149.291 13.728 148.355 13.728ZM170.096 12.064V26H167.808V12.064H170.096ZM168.978 6.838C169.324 6.838 169.628 6.95933 169.888 7.202C170.165 7.42733 170.304 7.79133 170.304 8.294C170.304 8.77933 170.165 9.14333 169.888 9.386C169.628 9.62867 169.324 9.75 168.978 9.75C168.596 9.75 168.276 9.62867 168.016 9.386C167.756 9.14333 167.626 8.77933 167.626 8.294C167.626 7.79133 167.756 7.42733 168.016 7.202C168.276 6.95933 168.596 6.838 168.978 6.838ZM181.219 11.804C182.883 11.804 184.139 12.2113 184.989 13.026C185.838 13.8233 186.263 15.1233 186.263 16.926V26H184.001V17.082C184.001 15.9553 183.749 15.1147 183.247 14.56C182.744 14.0053 181.955 13.728 180.881 13.728C179.338 13.728 178.272 14.1613 177.683 15.028C177.093 15.8947 176.799 17.1427 176.799 18.772V26H174.511V12.064H176.357L176.695 13.962H176.825C177.137 13.4767 177.518 13.078 177.969 12.766C178.437 12.4367 178.948 12.194 179.503 12.038C180.057 11.882 180.629 11.804 181.219 11.804Z" fill="#031926"/>
</svg>
