<svg width="149" height="55" viewBox="0 0 149 55" fill="none" xmlns="http://www.w3.org/2000/svg">
<path d="M47.3915 14.4297C47.3915 14.4297 47.118 21.9167 46.5712 36.8906L49.286 37.3398V39H41.1805V37.3398L43.954 36.8906L45.3602 11.6562L42.6063 11.207V9.54688H49.286L59.7743 32.418L70.3407 9.54688H76.454V11.207L73.5243 11.6562C73.7326 15.901 73.954 20.1263 74.1883 24.332C74.4227 28.5378 74.6376 32.724 74.8329 36.8906L77.8407 37.3398V39H68.2899V37.3398L71.2196 36.8906L70.3407 14.7227L58.9735 39L47.3915 14.4297ZM94.4394 17.16C96.2794 17.16 97.8528 17.56 99.1594 18.36C100.493 19.16 101.506 20.2933 102.199 21.76C102.919 23.2 103.279 24.8933 103.279 26.84V28.96H88.5994C88.6528 31.3867 89.2661 33.24 90.4394 34.52C91.6394 35.7733 93.3061 36.4 95.4394 36.4C96.7994 36.4 97.9994 36.28 99.0394 36.04C100.106 35.7733 101.199 35.4 102.319 34.92V38C101.226 38.48 100.146 38.8267 99.0794 39.04C98.0128 39.28 96.7461 39.4 95.2794 39.4C93.2528 39.4 91.4528 38.9867 89.8794 38.16C88.3328 37.3333 87.1194 36.1067 86.2394 34.48C85.3861 32.8267 84.9594 30.8133 84.9594 28.44C84.9594 26.0933 85.3461 24.08 86.1194 22.4C86.9194 20.72 88.0261 19.4267 89.4394 18.52C90.8794 17.6133 92.5461 17.16 94.4394 17.16ZM94.3994 20.04C92.7194 20.04 91.3861 20.5867 90.3994 21.68C89.4394 22.7467 88.8661 24.24 88.6794 26.16H99.5994C99.5994 24.9333 99.4128 23.8667 99.0394 22.96C98.6661 22.0533 98.0928 21.3467 97.3194 20.84C96.5728 20.3067 95.5994 20.04 94.3994 20.04ZM120.058 17.2C122.671 17.2 124.604 17.7733 125.858 18.92C127.111 20.0667 127.738 21.8933 127.738 24.4V39H125.178L124.498 35.96H124.338C123.724 36.7333 123.084 37.3867 122.418 37.92C121.778 38.4267 121.031 38.8 120.178 39.04C119.351 39.28 118.338 39.4 117.138 39.4C115.858 39.4 114.698 39.1733 113.658 38.72C112.644 38.2667 111.844 37.5733 111.258 36.64C110.671 35.68 110.378 34.48 110.378 33.04C110.378 30.9067 111.218 29.2667 112.898 28.12C114.578 26.9467 117.164 26.3067 120.658 26.2L124.298 26.08V24.8C124.298 23.0133 123.911 21.7733 123.138 21.08C122.364 20.3867 121.271 20.04 119.858 20.04C118.738 20.04 117.671 20.2133 116.658 20.56C115.644 20.88 114.698 21.2533 113.818 21.68L112.738 19.04C113.671 18.5333 114.778 18.1067 116.058 17.76C117.338 17.3867 118.671 17.2 120.058 17.2ZM121.098 28.64C118.431 28.7467 116.578 29.1733 115.538 29.92C114.524 30.6667 114.018 31.72 114.018 33.08C114.018 34.28 114.378 35.16 115.098 35.72C115.844 36.28 116.791 36.56 117.938 36.56C119.751 36.56 121.258 36.0667 122.458 35.08C123.658 34.0667 124.258 32.52 124.258 30.44V28.52L121.098 28.64ZM140.702 33.0234C140.702 35.6276 141.757 36.9297 143.866 36.9297C144.973 36.9297 146.047 36.474 147.089 35.5625L148.144 36.8516C147.037 37.763 146.015 38.4271 145.077 38.8438C144.14 39.2474 143.313 39.4492 142.597 39.4492C141.881 39.4492 141.184 39.293 140.507 38.9805C139.843 38.668 139.29 38.2188 138.847 37.6328C137.975 36.5 137.538 34.8919 137.538 32.8086V21.9688H135.058V20.2695L137.538 19.6836V17.0664L139.843 14.7617H140.702V19.6836H147.148V21.9688H140.702V33.0234Z" fill="#031926"/>
<g clip-path="url(#clip0_51_321)">
<path d="M37 16.3808C36.9661 16.2835 36.9455 16.1768 36.9431 16.0569C36.9262 15.0459 36.5111 14.1773 35.8916 13.3906C35.7984 13.272 35.7149 13.1462 35.6109 13.037C34.2036 11.5656 32.9306 10.0017 31.7919 8.31199C31.4991 8.10908 31.2062 7.90499 30.9146 7.70089C29.7893 6.9118 28.6881 6.09424 27.5942 5.26599C27.3026 5.1948 27.0073 5.12242 26.7084 5.05003C25.6242 5.1236 24.5376 5.11648 23.4485 5.1153C23.3602 5.1153 23.2731 5.1153 23.1847 5.1153C22.5253 5.21378 21.8743 5.27905 21.1869 5.16988C20.9655 5.18412 20.7441 5.20192 20.5238 5.22446C20.3084 5.30278 20.0809 5.34787 19.8498 5.34787C19.8196 5.34787 19.7905 5.3455 19.7615 5.34312C19.7397 5.34787 19.7167 5.35143 19.6949 5.35618C19.4045 5.55196 19.0802 5.65994 18.6942 5.69198C18.013 5.75013 17.3341 5.84505 16.6577 5.94829C14.2969 6.3102 12.3329 7.46476 10.5505 8.94919C9.66475 9.68725 8.84554 10.493 8.20663 11.4933C8.02149 12.0284 7.75769 12.5232 7.39952 12.9729C6.76545 14.4313 6.35281 15.9537 6.10475 17.514C6.00432 18.1441 5.78288 18.665 5.39324 19.1266C5.33636 19.3746 5.26497 19.6167 5.18027 19.8481C4.85113 20.757 4.3308 21.8807 3.54427 22.6069C2.34752 24.5565 1.04549 26.4278 0.367858 28.725C0.355758 28.7143 0.344867 28.7037 0.333977 28.6942C0.308565 28.8199 0.280734 28.9469 0.255323 29.0751C0.20934 29.31 0.174249 29.5438 0.111326 29.7751C0.153678 29.8713 0.150047 30.0196 0.148837 30.1347C0.140367 31.2501 0.133107 32.3667 0.100435 33.4809C0.0968048 33.5924 0.0592929 33.7206 0 33.8297C0.00968048 33.8986 0.0169408 33.9674 0.019361 34.0386C0.0229911 34.1122 0.019361 34.1857 0.0133107 34.2581C0.0689734 34.4658 0.113746 34.6782 0.145207 34.8929C0.148837 34.8882 0.153678 34.8846 0.157308 34.8799C0.21055 35.192 0.245642 35.4459 0.297675 35.6963C0.448932 36.426 0.572358 37.1629 0.772018 37.8808C1.03702 38.8324 1.56098 39.65 2.26644 40.3596C3.71246 41.8108 5.35452 43.0211 7.12725 44.0499C8.49704 44.8449 10.0338 45.1914 11.6795 45.3836C11.665 45.4074 11.648 45.4299 11.6323 45.4537C11.9578 45.4608 12.2761 45.4442 12.6052 45.4323C12.6088 45.4323 12.6112 45.4323 12.6149 45.4323C12.679 45.4216 12.7419 45.4121 12.8061 45.3991C12.9912 45.3647 13.1739 45.3255 13.3566 45.2816C13.4498 45.2591 13.5418 45.2329 13.635 45.2092C13.9 45.0348 14.1904 44.8995 14.534 44.8378C14.8281 44.7844 15.1064 44.6456 15.4271 44.534C15.4525 44.5625 15.4779 44.5898 15.5033 44.6183C15.6207 44.5364 15.7477 44.47 15.8845 44.4213C16.0079 44.3406 16.1361 44.273 16.2693 44.216C16.2547 44.2018 16.239 44.1887 16.2245 44.1745C16.4992 44.0072 16.7303 43.8648 16.9626 43.7248C18.906 42.5584 20.3798 40.9932 21.1664 38.8728C21.2886 38.5441 21.4411 38.251 21.631 37.9805C21.6347 37.9722 21.6371 37.9627 21.6395 37.9544C21.8113 37.4679 22.0497 37.0193 22.3208 36.5886C22.3208 36.5886 22.3208 36.5862 22.3208 36.585C22.3208 36.2658 22.3946 35.9668 22.5386 35.6868C22.4999 35.72 22.4623 35.7544 22.4224 35.7876C22.8435 33.9543 24.6308 32.038 26.0828 31.7496C27.0037 31.0602 28.1605 30.5203 29.2108 30.2249C29.2992 30.1999 29.3875 30.1786 29.4771 30.1584C29.7179 29.9353 29.9829 29.7324 30.2987 29.5711C31.493 28.9576 32.5361 28.1044 33.3577 27.0317C33.6167 26.6947 33.9119 26.3577 34.0596 25.9721C34.137 25.7692 34.2362 25.5876 34.3476 25.4168C34.356 25.0739 34.448 24.7523 34.6234 24.4544C34.6537 24.4153 34.6839 24.3773 34.7142 24.3393C34.7287 24.2788 34.7432 24.2183 34.7602 24.159C34.759 24.1471 34.7566 24.1353 34.7553 24.1234C34.7444 23.8481 34.8037 23.5918 34.9308 23.3545C34.9332 23.345 34.9381 23.3379 34.9417 23.3284C34.9308 23.3236 34.9187 23.3177 34.9078 23.3129C35.5552 21.4559 36.2038 19.5977 36.8766 17.6695C36.7943 17.2055 36.8366 16.7629 36.9964 16.3785L37 16.3808ZM35.7536 14.8834C35.819 15.0281 35.8831 15.1729 35.9485 15.3177C35.9049 15.3343 35.8613 15.3509 35.8178 15.3687C35.7657 15.2192 35.7137 15.0697 35.6617 14.9201C35.6919 14.9083 35.7234 14.8964 35.7536 14.8834ZM34.7469 13.8842C34.6017 13.6149 34.5109 13.4464 34.3572 13.1604C34.6347 13.3542 34.7646 13.5955 34.7469 13.8842ZM3.75603 39.1647C4.22795 39.3759 4.28361 39.8482 4.47722 40.235C4.02829 40.0095 3.9097 39.5764 3.75603 39.1647ZM5.8216 41.2531C5.70906 41.0668 5.59653 40.8805 5.48278 40.6942C5.52634 40.6622 5.57112 40.6301 5.61589 40.5993C5.72237 40.7974 5.83007 40.9956 5.93655 41.1926C5.89783 41.2128 5.86032 41.2329 5.8216 41.2543V41.2531ZM7.19744 42.0149C7.01714 41.7206 6.83684 41.4263 6.65654 41.1309C6.71099 41.1 6.76544 41.0692 6.8199 41.0383C6.99415 41.3362 7.1696 41.634 7.34385 41.9318C7.29545 41.9591 7.24584 41.9876 7.19744 42.0149ZM8.13644 41.8808C8.87579 41.9212 8.95565 42.4872 9.24244 43.0282C8.45832 42.9084 8.40266 42.3068 8.13644 41.8808ZM16.5742 42.6343C16.4254 42.5097 16.2475 42.3602 16.0817 42.2214C15.5977 42.4563 16.0236 42.7696 15.9389 43.0532C15.8445 43.0971 15.7368 43.1481 15.5977 43.2134C15.4827 43.0247 15.4004 42.8408 15.271 42.6972C15.2032 42.6212 15.0023 42.5524 14.9539 42.5904C14.8571 42.6675 14.7627 42.8289 14.7785 42.9416C14.8015 43.103 14.9237 43.2501 15.0398 43.4756C14.8438 43.5587 14.7083 43.6156 14.5098 43.6987C14.4409 43.491 14.4046 43.3024 14.315 43.141C14.2654 43.0508 14.102 42.9357 14.0379 42.9582C13.9205 43.001 13.7681 43.1291 13.7548 43.2359C13.7318 43.421 13.8032 43.618 13.8407 43.847C13.5636 44.0167 13.3349 44.0748 13.2574 43.656C13.2078 43.3854 13.2018 43.0188 12.8 43.1695C12.4515 43.3 12.6016 43.618 12.7262 43.8731C12.7565 43.936 12.7565 44.0119 12.771 44.0843C12.4201 44.2516 12.1744 44.2018 12.0764 43.8067C12.0643 43.758 12.0667 43.6963 12.0365 43.6643C11.9239 43.5468 11.7993 43.3439 11.6831 43.3474C11.4181 43.3546 11.4121 43.5871 11.446 43.7984C11.4617 43.8921 11.481 43.9858 11.4992 44.0891C10.9256 44.2315 10.5578 44.0262 10.3158 43.5302C10.1633 43.2181 9.97331 42.9226 9.80149 42.6201C10.2807 42.2344 10.8143 42.2059 11.3794 42.2463C12.1321 42.3009 12.8484 42.1193 13.5055 41.774C14.3949 41.3065 15.2649 40.801 16.2148 40.273C16.5137 40.68 16.8477 41.1356 17.201 41.6162C16.8344 41.8725 17.2918 42.5358 16.5742 42.6331V42.6343ZM17.875 41.7752C17.3426 41.1772 17.0207 40.4984 16.5996 39.8185C16.8138 39.6144 17.005 39.4329 17.2264 39.2216C17.6899 39.8648 18.1194 40.4605 18.6071 41.1368C18.3857 41.3302 18.1642 41.5236 17.875 41.7764V41.7752ZM18.9955 40.585C18.9265 40.585 18.8576 40.5839 18.7886 40.5827C18.4546 39.9336 18.1206 39.2845 17.7867 38.6355C17.8266 38.6117 17.8677 38.588 17.9077 38.5631C18.2937 39.1172 18.6894 39.6666 19.0572 40.2326C19.1056 40.3062 19.0185 40.4652 18.9955 40.5839V40.585ZM19.5885 39.847C19.0512 39.1457 18.7596 38.4492 18.3191 37.7776C18.5974 37.2827 18.8515 36.833 19.1395 36.3216C19.5788 36.8864 19.9841 37.4085 20.4234 37.9733C20.1681 38.5465 19.9079 39.1279 19.5872 39.8458L19.5885 39.847ZM19.6611 35.1065C19.8926 35.3755 19.9281 35.6334 19.7675 35.8802C19.5521 35.6464 19.4033 35.4103 19.6611 35.1065ZM20.6049 37.2056C20.0156 36.5981 20.012 36.5874 20.3363 36.006C20.9256 36.5874 20.928 36.5957 20.6049 37.2056ZM20.8542 35.3486C20.8118 35.345 20.7695 35.3415 20.7259 35.3379C20.7344 35.192 20.7428 35.046 20.7501 34.9001C20.8106 34.9084 20.8699 34.9155 20.9304 34.9238C20.905 35.065 20.8784 35.2074 20.853 35.3486H20.8542ZM19.6114 32.5767C19.2775 33.437 18.9604 34.3032 18.6252 35.1623C17.6524 37.6541 16.0164 39.5527 13.5684 40.7963C12.2022 41.4904 10.8433 41.5272 9.44573 41.0715C8.48494 40.7583 7.55682 40.3465 6.62266 39.9597C6.36855 39.8553 6.12653 39.7046 5.90509 39.5408C5.5808 39.3023 5.36662 39.0199 5.29522 38.5785C5.06168 37.1297 4.75675 35.6927 4.48327 34.2498C4.45665 34.1074 4.45907 33.9603 4.44576 33.7764C4.97698 33.882 5.25771 34.105 5.37993 34.6319C5.61226 35.6239 5.93897 36.5945 6.2427 37.5699C6.32014 37.8203 6.45688 38.0528 6.56578 38.2937C6.62629 38.2842 6.688 38.2747 6.7485 38.2641C6.7485 38.1217 6.77634 37.9722 6.74366 37.8369C6.5198 36.8924 6.28142 35.9514 6.05272 35.008C6.02489 34.8941 6.02368 34.7743 6.00674 34.6295C6.55489 34.6983 6.76545 34.9748 6.86346 35.4554C7.14177 36.82 7.46849 38.1763 7.78916 39.5325C7.85329 39.8055 7.97792 40.0653 8.15096 40.3098C8.36877 39.7295 8.08199 39.2122 8.00697 38.677C7.93073 38.1359 7.78916 37.6043 7.69235 37.0656C7.59313 36.5103 7.51205 35.9514 7.41888 35.3676C8.203 35.4957 8.57448 35.866 8.68097 36.5921C8.83223 37.6245 9.08392 38.6426 9.2981 39.6666C9.35134 39.9194 9.37191 40.1947 9.69016 40.4237C9.91523 39.6512 9.62724 38.9926 9.54979 38.3293C9.46993 37.6423 9.31988 36.9636 9.19887 36.2718C9.94911 36.3311 10.0495 36.407 10.1536 37.0549C10.323 38.111 10.4743 39.1706 10.6425 40.2279C10.6679 40.3881 10.7369 40.5411 10.8458 40.6895C11.118 40.076 10.9438 39.4602 10.8809 38.8491C10.8155 38.2083 10.7369 37.5699 10.6522 36.8164C11.1713 37.0193 11.6226 37.1546 12.0256 37.3765C12.1841 37.4643 12.2506 37.7396 12.3257 37.9401C12.46 38.3008 12.46 38.7221 12.8738 39.0472C13.1304 38.5109 12.8339 38.0469 12.8303 37.5319C13.0614 37.2875 13.5164 37.1226 13.4026 36.6313C12.9706 35.917 12.3475 35.4044 11.6577 34.9285C10.2347 33.9472 8.6483 33.291 7.08006 32.5909C6.45809 32.3133 5.86274 31.9763 5.23956 31.701C4.68777 31.4577 4.12872 31.2038 3.54548 31.0602C2.86421 30.8929 2.39471 31.4542 2.68028 32.0902C2.83638 32.4379 3.17278 32.706 3.41721 33.0181C3.56484 33.2068 3.76571 33.3955 3.81532 33.6126C4.18318 35.2133 4.52078 36.82 4.86323 38.4254C4.8717 38.4634 4.83419 38.5097 4.80999 38.5749C3.39543 37.5118 2.27491 36.2302 1.56703 34.6212C1.49684 34.4622 1.41456 34.2961 1.40125 34.1276C1.24394 32.2373 1.14472 30.3459 1.7195 28.4996C1.85744 28.0581 2.11639 27.6523 2.31847 27.2299L2.2979 27.2513C2.47578 26.8715 2.61373 26.4669 2.83759 26.1157C3.64228 24.8484 4.46149 23.5894 5.30248 22.3459C6.35402 20.7914 7.13814 19.1492 7.37895 17.2696C7.48301 16.4603 7.7468 15.6701 7.94646 14.8727C8.56843 12.3927 10.0266 10.4763 12.1042 8.98479C12.8569 8.44489 13.6374 7.9477 14.5691 7.53239C14.5933 8.52795 14.6006 9.43569 14.6405 10.3411C14.6696 10.9866 14.7397 11.6309 14.8002 12.274C14.8269 12.5564 14.8753 12.84 15.3629 12.7522C15.2407 10.9818 15.1185 9.20668 14.9902 7.36152C16.8815 6.57244 19.0016 6.76704 20.98 6.13221C21.0865 6.93672 20.7525 7.72344 21.3116 8.55761C21.5984 7.67241 21.4072 6.89756 21.5536 6.11441C21.7145 6.14526 21.873 6.17493 22.0243 6.20341C22.0788 6.68991 22.1308 7.14082 22.1816 7.59172C22.2409 7.59172 22.3002 7.59054 22.3595 7.58935C22.4309 7.12064 22.5023 6.65194 22.5797 6.14408C22.7709 6.13221 22.9391 6.12153 23.1339 6.10966C23.2065 6.4431 23.2755 6.76229 23.3626 7.16574C23.8043 6.84654 23.6046 6.38258 23.9592 6.03491C24.5582 5.98863 25.2588 5.93286 25.963 5.87828C26.372 6.54989 26.2014 7.39238 26.8125 7.98567C27.0509 7.63088 26.942 7.31999 26.8875 7.01148C26.8367 6.71839 26.7919 6.4253 26.7266 6.01236C27.0545 6.07525 27.3728 6.06101 27.6039 6.19273C28.4316 6.66618 29.2629 7.14675 30.0313 7.70564C30.8577 8.30724 31.4192 9.1521 31.8875 10.0444C31.9831 10.2283 32.0363 10.468 32.0121 10.6709C31.9153 11.4588 32.0642 12.1922 32.3461 12.9326C32.6111 13.6268 32.7624 14.3624 32.9766 15.0768C33.1447 15.6357 33.0564 16.1708 32.8011 16.6716C32.4502 17.3598 32.0884 18.0456 31.6782 18.7018C30.9485 19.8694 30.2333 21.0359 29.6985 22.3115C29.3524 23.1361 28.9132 23.9323 28.4304 24.6894C28.1278 25.164 27.7261 25.6268 27.2626 25.9448C26.3733 26.5535 25.4463 27.1397 24.465 27.5859C22.161 28.6325 20.5129 30.2474 19.6078 32.5791L19.6114 32.5767ZM3.92906 32.3418C6.48834 33.6648 9.04641 34.9879 11.7412 36.3821C10.2202 36.2646 4.7156 33.4773 3.92906 32.3418ZM22.5652 32.3548C22.4285 32.1127 22.3401 31.9561 22.2506 31.7983C22.3014 31.7663 22.3522 31.7342 22.403 31.7034C22.5991 31.8208 22.7721 31.949 22.564 32.3548H22.5652ZM23.2356 31.5301C23.1182 31.2192 23.0565 31.0567 22.9367 30.741C23.2682 30.9665 23.4522 31.0757 23.2356 31.5301ZM23.745 29.2483C23.699 29.3409 23.6155 29.4156 23.4982 29.5568C23.428 29.4085 23.3408 29.2886 23.3638 29.2637C23.434 29.1854 23.5441 29.1368 23.6458 29.0929C23.6555 29.0881 23.7595 29.2174 23.745 29.2483ZM24.0838 30.5073C23.9152 30.2834 23.8983 30.0405 24.033 29.7787C24.2496 30.073 24.5533 30.2711 24.0838 30.5073ZM24.4771 31.3165C24.1407 30.9962 24.3379 30.811 24.5969 30.5927C24.7143 30.728 24.822 30.8526 24.9781 31.0329C24.7869 31.1409 24.6308 31.2287 24.4771 31.3165ZM30.3677 28.3002C30.1704 27.9335 29.9841 27.5562 29.7651 27.199C29.7021 27.0958 29.5448 27.0483 29.4311 26.976C29.3827 27.1243 29.2496 27.313 29.3004 27.4114C29.5013 27.8054 29.7602 28.1721 30.0143 28.5743C29.8933 28.6574 29.7953 28.725 29.6186 28.846C29.4323 28.5565 29.258 28.2966 29.0959 28.0309C29.0184 27.9039 28.9894 27.7342 28.8865 27.6381C28.7776 27.536 28.607 27.4993 28.463 27.434C28.4231 27.5894 28.3154 27.7651 28.3578 27.8944C28.4231 28.0985 28.5804 28.2788 28.7147 28.458C28.8478 28.6372 28.9991 28.8033 29.1758 29.0145C29.0269 29.1261 28.8974 29.2234 28.6869 29.38C28.486 29.0169 28.3081 28.6977 28.1327 28.3773C28.0129 28.1578 27.8979 27.8635 27.5809 28.0403C27.2881 28.2041 27.4272 28.4818 27.5567 28.6965C27.7358 28.9932 27.9451 29.2732 28.0746 29.6636C27.9451 29.6019 27.7672 29.5734 27.6946 29.4726C27.4901 29.1902 27.3413 28.8698 27.1429 28.5826C27.092 28.509 26.9021 28.4426 26.8452 28.4794C26.7665 28.5292 26.6939 28.7013 26.7254 28.7808C26.8052 28.9861 26.9311 29.1771 27.063 29.3575C27.1925 29.5343 27.351 29.6897 27.5349 29.8974C26.8875 30.1869 26.2922 30.4527 25.5952 30.7636C25.2007 30.0576 24.8195 29.3741 24.4577 28.7274C25.6472 27.9858 26.7944 27.3153 27.8895 26.5737C29.0378 25.7965 29.5485 24.534 30.2031 23.3248C31.0211 24.369 31.7895 25.3491 32.5639 26.3376C32.3086 26.9926 31.3672 27.8517 30.3677 28.3014V28.3002ZM33.0504 26.0587C32.7345 25.6304 32.5216 25.3586 32.3267 25.0762C31.8161 24.337 31.3151 23.5918 30.8057 22.8514C30.6581 22.6366 30.5201 22.4313 30.865 22.1608C31.0247 22.3815 31.1772 22.5962 31.3333 22.8075C31.735 23.3485 32.115 23.9086 32.553 24.42C32.766 24.6668 33.0867 24.8259 33.3614 25.0216C33.2742 25.3124 33.1859 25.6043 33.0492 26.0587H33.0504ZM35.2878 19.5965C35.2273 19.6286 35.1668 19.6618 35.1075 19.6938C34.9683 19.434 34.8292 19.1753 34.6888 18.9154C34.2641 19.1729 34.4589 19.6855 34.0172 19.6748C34.0487 19.8089 34.0366 19.9881 34.1213 20.0688C34.3355 20.2729 34.5932 20.4331 34.8739 20.6407C34.8231 20.7985 34.7662 20.9825 34.7057 21.1664C34.3439 22.2782 33.9857 23.3913 33.6167 24.5007C33.5574 24.6775 33.4521 24.8401 33.3674 25.0086C33.221 24.6775 33.1084 24.3263 32.916 24.0225C32.3401 23.1172 31.7302 22.2308 31.1131 21.3088C31.2558 21.0513 31.3998 20.7938 31.5801 20.471C32.3255 21.2518 32.8192 22.1892 33.6542 22.8063C33.9579 22.5393 33.7474 22.3898 33.6481 22.2403C33.1629 21.5117 32.6716 20.7867 32.1779 20.0629C32.0388 19.8588 31.9444 19.6689 32.2396 19.4684C32.864 20.1388 33.2403 21.0477 34.1479 21.4773C34.1055 20.9267 33.6941 20.5755 33.434 20.1495C33.1617 19.7021 32.8664 19.269 32.5833 18.8312C32.9778 18.0172 33.3553 17.2364 33.8006 16.318C33.9664 16.7143 34.085 16.9967 34.2386 17.3622C34.327 17.3871 34.5109 17.4369 34.8013 17.5176C34.6513 17.8463 34.5157 18.1406 34.3609 18.4787C34.7662 18.582 34.8969 18.2201 35.1873 18.099C35.3168 18.1679 35.4693 18.2485 35.6883 18.3648C35.5552 18.7718 35.4209 19.1836 35.2878 19.5941V19.5965ZM35.7113 18.0551C35.6157 17.946 35.5213 17.8356 35.4257 17.7264C35.4475 17.6968 35.4705 17.6671 35.4923 17.6375C35.5733 17.6814 35.675 17.7086 35.7282 17.7739C35.7766 17.8321 35.7742 17.9329 35.7936 18.0136C35.7657 18.0278 35.7379 18.0421 35.7113 18.0563V18.0551ZM35.8093 17.2554C35.7851 17.1391 35.7597 17.0216 35.7427 16.9041C35.7427 16.8994 35.8638 16.8685 35.8662 16.8757C35.9122 16.9836 35.9485 17.0964 35.986 17.2079C35.9267 17.2233 35.8674 17.2388 35.8081 17.2554H35.8093Z" fill="#931F1D"/>
<path d="M25.6279 25.2994C25.3846 24.197 25.3556 23.0638 25.2382 21.9437C25.1221 20.8318 24.9781 19.7224 24.8401 18.5548C24.5182 18.4622 24.2145 18.3744 23.8297 18.2629C23.9749 19.8256 24.1117 21.2994 24.2532 22.817C23.6349 22.7031 23.549 22.2949 23.5006 21.8725C23.3832 20.8591 23.2767 19.8446 23.1642 18.8312C23.1364 18.5856 23.1025 18.3412 23.065 18.0552C22.6923 17.9413 22.3377 17.8321 21.8924 17.6957C21.9699 19.0697 22.2821 20.3501 22.2349 21.6672C21.6758 21.6269 21.4713 21.3694 21.4507 20.89C21.4132 20.0451 21.337 19.2026 21.2729 18.359C21.2523 18.0884 21.2196 17.8191 21.187 17.4951C18.7087 16.8947 16.2717 16.2278 13.9012 15.1101C13.8528 15.5266 13.8128 15.8659 13.7741 16.2065C13.7318 16.21 13.6882 16.2136 13.6459 16.216C13.5866 16.0439 13.4716 15.8695 13.4801 15.701C13.5115 15.0187 13.1376 14.6081 12.5278 14.2533C12.3971 15.2216 12.6234 16.1412 12.6451 17.1641C12.2579 16.8484 12.2603 16.4865 12.2192 16.1673C12.0982 15.205 11.9784 14.2403 11.9203 13.2732C11.8598 12.2563 11.8659 11.2346 11.8586 10.2142C11.8574 9.98872 11.9167 9.76208 12.0377 9.54256C12.5205 10.6734 12.2567 11.8754 12.4467 13.0667C13.2586 12.8757 13.9714 13.1285 14.6986 13.3409C15.7163 13.6387 16.7509 13.8819 17.771 14.1715C19.4239 14.6402 21.0659 15.1504 22.7249 15.6013C24.7361 16.1483 26.6116 17.0383 28.555 17.7574C28.9967 17.9211 29.2484 18.2546 29.2544 18.6402C29.2617 19.1742 28.8188 19.2477 28.3735 19.4305V20.8473C28.3287 20.8603 28.284 20.8734 28.2392 20.8864C28.1605 20.7867 28.0371 20.6978 28.0105 20.5874C27.9391 20.2991 27.9016 20.0012 27.8653 19.7058C27.835 19.4554 27.7576 19.2715 27.3655 19.3272C27.3655 19.6061 27.3595 19.8921 27.3655 20.1768C27.3897 21.0715 27.426 21.9662 27.4405 22.8621C27.4442 23.0698 27.3788 23.2774 27.3328 23.5669C26.9626 23.3237 27.0219 23.0342 27.0013 22.7885C26.9275 21.9211 26.8779 21.0525 26.8053 20.184C26.775 19.8149 26.7109 19.4483 26.6576 19.0472C26.3176 18.9546 26.0066 18.8704 25.6037 18.76C25.6787 19.9158 25.7295 21.0003 25.8239 22.0813C25.9171 23.1528 25.9606 24.2196 25.9848 25.2887C25.8663 25.2911 25.7489 25.2934 25.6303 25.2958L25.6279 25.2994ZM14.5086 14.6473C18.4546 16.3963 22.6632 17.2697 26.8537 18.2035C22.8157 16.7618 18.6446 15.7639 14.5086 14.6473Z" fill="#931F1D"/>
<path d="M31.5765 17.3183C31.0187 17.202 30.9533 16.8876 30.882 16.6111C30.6775 15.8161 30.5032 15.0151 30.3096 14.2178C30.2624 14.022 30.185 13.8345 30.0773 13.5082C29.8014 13.8736 29.9175 14.1086 29.9454 14.3329C30.0797 15.4174 30.2309 16.5008 30.3423 17.5877C30.3725 17.8855 30.4391 18.2403 30.07 18.467C29.7239 18.2902 29.8062 17.946 29.753 17.6826C29.5158 16.5138 29.2823 15.3426 29.0959 14.1644C28.9894 13.4951 28.6712 13.1356 27.9088 13.1534C28.0044 14.3981 28.1012 15.6452 28.1993 16.9184C27.6293 16.8769 27.4889 16.5731 27.4418 16.1626C27.3353 15.224 27.2191 14.2866 27.0957 13.3492C27.0291 12.8437 27.0182 12.846 26.4023 12.7381C26.6165 13.9377 26.8283 15.1196 27.0449 16.3275C26.4616 16.3524 26.2692 16.1092 26.2135 15.6725C26.1095 14.8585 25.9788 14.0481 25.8542 13.2376C25.8166 12.9932 25.767 12.7511 25.7065 12.4212C23.1376 11.8125 20.5601 11.2026 17.9549 10.5856C17.892 10.8692 17.8351 11.1243 17.771 11.4103C17.3813 11.3094 17.4007 11.0163 17.3523 10.7636C17.2869 10.421 17.0405 10.1774 16.6129 10.0326V12.7464C16.5597 12.7535 16.5077 12.7606 16.4544 12.7677C16.1979 12.2468 16.2451 11.6535 16.1737 11.0923C16.0962 10.4764 16.0575 9.85463 16.0115 9.23523C15.968 8.65617 15.9135 8.07593 15.9462 7.49924C16.0139 7.48975 16.0817 7.47907 16.1495 7.46957C16.2596 7.8481 16.3685 8.22781 16.4617 8.547C16.8513 8.56836 17.2107 8.53039 17.5362 8.6182C18.5986 8.90417 19.6792 8.9635 20.7719 9.00266C21.2946 9.02164 21.8295 9.13318 22.3293 9.29337C23.8709 9.78462 25.3968 10.3222 26.9311 10.8359C27.9851 11.1896 29.0475 11.523 30.0966 11.8896C30.4016 11.9964 30.692 12.1649 30.9594 12.3465C31.7496 12.884 31.7568 13.1534 31.0187 13.7562C31.1179 14.9167 31.5136 16.0522 31.5765 17.3183ZM18.0529 9.81785C21.6722 10.8549 25.3447 11.7069 29.0112 12.5826C25.5565 10.9238 21.7823 10.4634 18.0529 9.81785Z" fill="#931F1D"/>
<path d="M10.2722 19.688C10.2383 19.7817 10.1766 19.9502 10.0967 20.1697C9.65508 19.2643 9.08393 13.7028 9.38644 12.8959C9.49051 13.1534 9.59336 13.31 9.61393 13.4761C9.77971 14.8585 9.93097 16.2421 10.0822 17.6268C10.1113 17.8914 10.1222 18.1584 10.15 18.5405C10.6618 18.0552 11.1011 18.1833 11.6081 18.3246C13.566 18.8692 15.4561 19.5883 17.316 20.3821C18.7559 20.9968 20.1741 21.6648 21.5875 22.3364C22.3825 22.715 23.1448 23.1588 23.9314 23.5551C24.2194 23.701 24.321 23.9051 24.3174 24.2101C24.3137 24.6325 24.3573 25.0549 24.3561 25.4774C24.3561 25.6328 24.2847 25.7882 24.246 25.9461C23.8515 25.882 23.9435 25.6067 23.9023 25.4109C23.8563 25.195 23.8333 24.9731 23.7934 24.7084C23.3384 24.6289 22.8992 24.553 22.3897 24.464C22.3595 24.6681 22.3123 24.8508 22.3099 25.0348C22.2978 25.831 22.3075 26.6284 22.2929 27.4246C22.2881 27.6832 22.2336 27.9395 22.1961 28.2421C21.7254 28.1164 21.7726 27.8055 21.7581 27.561C21.7085 26.7411 21.6807 25.9211 21.6492 25.1C21.6395 24.8319 21.648 24.5637 21.648 24.2635C21.1882 24.1246 20.79 24.0048 20.4028 23.8873V30.1205C20.0083 29.9318 20.0204 29.6411 19.9975 29.3967C19.9261 28.6539 19.8765 27.9087 19.8244 27.1635C19.753 26.1466 19.6671 25.1297 19.6308 24.1104C19.6151 23.6749 19.465 23.4091 19.0439 23.2703C18.7644 23.1777 18.4982 23.0425 18.1146 22.8787C18.1642 23.7568 18.2078 24.5174 18.2501 25.2804C17.6403 25.1309 17.5773 25.0704 17.5326 24.5518C17.4769 23.9099 17.4273 23.2679 17.3716 22.588C17.0159 22.4705 16.6952 22.3637 16.2693 22.2237C16.3564 22.9689 16.429 23.599 16.504 24.2433C15.8288 24.1519 15.7852 24.1258 15.7247 23.6334C15.6824 23.2881 15.6751 22.938 15.6473 22.5916C15.5965 21.9615 15.5965 21.9591 14.9854 21.7776C14.8438 21.736 14.6962 21.7147 14.4723 21.6684C14.5631 22.2949 14.6454 22.8716 14.7325 23.4732C14.2678 23.5456 14.1541 23.3106 14.148 22.9784C14.1408 22.5085 14.1456 22.0374 14.1456 21.5948C12.8387 20.9517 11.5549 20.3192 10.2734 19.688H10.2722ZM21.5669 23.3261C19.8716 22.3388 13.6483 20.0641 12.3378 19.9265C13.4922 20.5874 20.5795 23.2252 21.5669 23.3261Z" fill="#931F1D"/>
<path d="M13.416 36.6456C13.2889 35.459 13.1643 34.2712 13.0348 33.0846C12.9997 32.7643 12.9513 32.4451 12.9029 32.076C12.6428 31.9692 12.3705 31.8577 12.0184 31.7129C11.9639 32.7215 12.2688 33.6269 12.2737 34.5987C11.8078 34.4824 11.5658 34.2392 11.5126 33.7895C11.446 33.2211 11.3056 32.6598 11.2742 32.0903C11.2439 31.5504 11.037 31.2015 10.5058 31.0378C10.317 30.9796 10.1403 30.8847 9.8342 30.7542C9.93464 31.6144 10.0254 32.3798 10.121 33.1985C9.71078 33.1843 9.50386 33.0478 9.45061 32.6966C9.36954 32.1555 9.27878 31.6144 9.19045 31.0745C9.10333 30.5406 8.76209 30.1395 8.16674 29.8713C8.30106 30.7411 8.4269 31.5575 8.55759 32.4035C8.02516 32.3359 7.76258 32.1211 7.7166 31.6405C7.6573 31.0223 7.53509 30.4089 7.47338 29.7906C7.43949 29.4453 7.31607 29.1926 7.04017 28.9636C6.59487 28.5957 6.18224 28.1875 5.76961 27.7829C5.60988 27.6263 5.47436 27.4412 5.35093 27.2549C5.16821 26.9772 5.1791 26.6877 5.36908 26.4136C5.56148 26.1359 5.85674 26.0184 6.16651 26.1039C6.62633 26.2309 7.09826 26.3721 7.50968 26.6011C8.34583 27.0674 9.13358 27.618 9.96368 28.095C10.6837 28.5091 11.4315 28.8793 12.1757 29.2531C13.0336 29.6827 13.9157 30.0707 14.7604 30.524C15.1778 30.7482 15.5663 31.0449 15.9135 31.3653C16.4992 31.9063 16.4569 32.222 15.8083 32.7429C15.7587 33.8168 16.1156 34.8871 15.9317 36.0369C15.5348 35.6275 15.5372 35.6275 15.3896 34.4409C15.3194 33.8749 15.2347 33.3101 15.1476 32.6776C14.666 32.5744 14.1868 32.4723 13.6035 32.3489C13.8068 34.4528 14.0016 36.4712 14.1989 38.5098C13.7899 38.537 13.785 38.2665 13.7354 38.0755C13.6108 37.5949 13.5128 37.1084 13.4027 36.6242L13.4136 36.6444L13.416 36.6456ZM6.19434 27.141C6.16651 27.1837 6.13868 27.2264 6.11085 27.2691C8.35914 29.3943 11.0201 30.7886 14.0513 31.5302C13.929 31.3617 13.7766 31.2383 13.6011 31.1647C12.9719 30.9025 12.3463 30.6296 11.7001 30.4112C9.90197 29.8049 8.29864 28.8805 6.86351 27.6643C6.6469 27.4815 6.41699 27.3154 6.19192 27.141H6.19434Z" fill="#931F1D"/>
<path d="M16.9699 34.8574C16.4411 32.3762 16.377 29.85 16.0515 27.3166C15.807 27.2383 15.5735 27.1635 15.2093 27.0472C15.2964 28.1045 15.3763 29.0692 15.4622 30.1075C14.9818 29.9295 14.741 29.7052 14.6974 29.278C14.6321 28.6349 14.5038 27.9965 14.4639 27.3522C14.4348 26.8882 14.257 26.6153 13.7923 26.5085C13.5491 26.4527 13.3179 26.3519 12.9852 26.2392C13.0614 27.0543 13.1304 27.8019 13.2054 28.6064C12.6899 28.4759 12.4927 28.2457 12.4854 27.7972C12.4757 27.2027 12.3959 26.6094 12.3438 25.9745C11.9554 25.7942 11.5767 25.6186 11.0818 25.3884C11.1713 26.1359 11.2451 26.7577 11.3213 27.3937C10.8603 27.4269 10.6994 27.243 10.6691 26.8847C10.6316 26.4385 10.5505 25.9959 10.5227 25.5497C10.5033 25.2436 10.3618 25.0692 10.1113 24.8936C9.45302 24.4332 8.81531 23.9431 8.19455 23.4364C8.0082 23.2845 7.86905 23.0508 7.76982 22.8277C7.5629 22.3625 7.83154 22.0137 8.33976 22.1015C8.8371 22.1869 9.33201 22.3151 9.81361 22.4682C11.3589 22.9582 12.9005 23.4613 14.2945 24.3086C14.4869 24.426 14.6986 24.5269 14.914 24.591C16.5573 25.0799 17.8629 26.1027 19.1625 27.1528C19.2315 27.6168 18.7814 27.669 18.4982 27.9111C18.5672 28.5827 18.6652 29.2709 18.7015 29.9615C18.7354 30.6011 18.9205 31.2513 18.6737 31.8933C18.226 31.2893 18.2828 30.5774 18.1618 29.9129C18.0372 29.2306 17.9827 28.5364 17.892 27.7912C17.564 27.7094 17.2567 27.6334 16.8562 27.5325C16.8429 30.0256 17.1877 32.4368 16.9699 34.8574ZM8.68463 23.0057C9.69382 24.6052 15.2661 27.1908 17.2446 26.9903C15.7768 26.162 14.1807 25.9437 12.8 25.2341C11.4121 24.521 10.0556 23.7509 8.68463 23.0057Z" fill="#931F1D"/>
<path d="M11.3237 17.6897C11.0647 17.8072 10.9425 17.6696 10.8905 17.4477C10.8336 17.2068 10.7901 16.9612 10.7634 16.7144C10.594 15.1623 10.4283 13.609 10.2709 12.0558C10.2552 11.8968 10.2976 11.733 10.3181 11.5159C10.8494 12.2207 11.435 15.9502 11.3237 17.6897Z" fill="#931F1D"/>
<path d="M8.40269 15.5764C8.74756 16.2195 9.21464 20.1543 9.06581 21.049C8.96053 20.9351 8.84316 20.8662 8.82379 20.7784C8.47046 19.154 8.21998 17.5165 8.26838 15.8481C8.26959 15.7864 8.32646 15.7259 8.4039 15.5776L8.40269 15.5764Z" fill="#931F1D"/>
<path d="M29.7457 8.00235C30.1668 9.07978 30.381 10.2035 30.5432 11.3664C29.7796 11.1967 29.7615 11.199 29.6876 10.5476C29.6078 9.83802 29.5606 9.12487 29.5122 8.41173C29.5025 8.27883 29.5509 8.14237 29.5727 8.00828C29.6308 8.00591 29.6889 8.00354 29.7469 8.00235H29.7457Z" fill="#931F1D"/>
<path d="M29.1225 10.8039C28.5683 10.7873 28.2924 10.5583 28.25 10.0433C28.2149 9.6007 28.1157 9.16285 28.0661 8.72025C28.0407 8.49005 28.0613 8.25391 28.0613 7.9537C28.5985 8.28833 29.0305 9.53663 29.1213 10.8039H29.1225Z" fill="#931F1D"/>
<path d="M19.9902 20.5743C19.6768 20.5387 19.3658 20.4972 19.3428 20.1128C19.2968 19.345 19.275 18.5749 19.2629 17.806C19.2605 17.6743 19.3561 17.5402 19.4142 17.386C19.7857 17.8475 20.0374 19.2774 19.989 20.5743H19.9902Z" fill="#931F1D"/>
<path d="M25.9981 9.28387C25.6085 8.91365 25.5661 8.47936 25.4741 8.08422C25.3398 7.50991 25.2636 6.92373 25.1813 6.33873C25.1716 6.27229 25.2842 6.19041 25.4173 6.01242C25.5601 6.25805 25.698 6.42417 25.7585 6.61284C26.0538 7.52059 26.1711 8.75346 25.9993 9.28387H25.9981Z" fill="#931F1D"/>
<path d="M13.2635 8.72737C13.6652 9.89854 13.6083 11.1148 13.6301 12.3216C13.6301 12.369 13.4898 12.4189 13.3276 12.5233C13.036 11.2085 13.1812 9.97092 13.2635 8.72618V8.72737Z" fill="#931F1D"/>
<path d="M24.7409 6.94035C25.1185 7.28921 25.4476 8.88519 25.3254 9.78819C24.9478 9.81429 24.9611 9.49628 24.8958 9.28626C24.4929 7.98812 24.4638 7.44347 24.7409 6.94154V6.94035Z" fill="#931F1D"/>
<path d="M8.05047 21.3634C7.68019 20.2587 7.56645 19.1303 7.70561 17.8321C8.10372 18.467 8.29975 20.5993 8.05047 21.3634Z" fill="#931F1D"/>
<path d="M24.9962 15.7888C24.8352 15.6963 24.563 15.631 24.5327 15.5076C24.3561 14.7766 24.2774 14.0326 24.5727 13.2922C24.9393 14.0493 24.9986 14.8609 25.1281 15.6571C25.0845 15.701 25.0397 15.7449 24.9962 15.7888Z" fill="#931F1D"/>
<path d="M6.19429 29.0455C6.26326 29.278 6.35039 29.5059 6.39879 29.742C6.52222 30.3412 6.6287 30.9428 6.75455 31.6061C6.4835 31.6228 6.28626 31.6014 6.22938 31.3771C6.04061 30.6189 6.04424 29.8441 5.97406 29.0763C6.04787 29.0668 6.12048 29.0561 6.19429 29.0467V29.0455Z" fill="#931F1D"/>
<path d="M6.0467 21.9318C6.4557 22.4195 6.52104 22.9879 6.29113 23.7224C5.78654 23.3913 5.65948 22.5809 6.0467 21.9318Z" fill="#931F1D"/>
<path d="M5.16215 22.9653C5.3001 23.0626 5.43805 23.1137 5.43926 23.1671C5.45499 23.7912 5.44894 24.4165 5.44894 25.0751C5.00121 24.693 4.88142 23.8399 5.16215 22.9653Z" fill="#931F1D"/>
<path d="M6.84656 20.7618C7.1273 21.4275 6.99419 22.1383 7.12367 22.8218C6.66747 22.4124 6.51743 21.3658 6.84656 20.7618Z" fill="#931F1D"/>
<path d="M18.3554 8.16135C18.3554 7.83148 18.336 7.56568 18.3663 7.30582C18.3772 7.21208 18.497 7.07562 18.5853 7.059C18.6737 7.04358 18.8515 7.13376 18.8769 7.21208C18.9713 7.50161 19.0173 7.80537 19.0948 8.16135H18.3566H18.3554Z" fill="#931F1D"/>
<path d="M19.8208 6.89169C20.196 7.36633 20.1209 7.81961 20.0616 8.27882C19.4457 8.16847 19.3429 7.64874 19.8208 6.89169Z" fill="#931F1D"/>
<path d="M5.23346 30.9405C4.5171 30.5619 4.82446 29.9069 4.7821 29.3385C5.23588 29.7811 5.1548 30.3768 5.23346 30.9405Z" fill="#931F1D"/>
<path d="M17.6451 6.9973C17.7165 7.36277 17.7879 7.72824 17.869 8.13881C17.604 8.16135 17.4382 8.1744 17.224 8.19339C17.172 7.74248 17.1224 7.34379 17.4285 7.00205C17.5011 7.00086 17.5725 6.99967 17.6451 6.99849V6.9973Z" fill="#931F1D"/>
<path d="M4.36347 24.273C4.764 24.6942 4.78941 24.8936 4.58491 25.615C4.22673 25.2211 4.18559 25.0016 4.36347 24.273Z" fill="#931F1D"/>
<path d="M26.9033 9.01215C27.0352 9.46187 27.1392 9.8131 27.2965 10.3483C26.9771 10.207 26.7169 10.1703 26.6806 10.0623C26.5753 9.75021 26.5439 9.40491 26.9033 9.01333V9.01215Z" fill="#931F1D"/>
<path d="M24.3004 8.02965C24.4081 8.51497 24.5158 9.00028 24.6501 9.59952C24.2447 9.13793 24.1068 8.65498 24.1431 8.03202C24.1963 8.03202 24.2484 8.03083 24.3016 8.02965H24.3004Z" fill="#931F1D"/>
<path d="M23.186 15.2643C22.7358 14.8834 22.731 14.8561 22.956 14.1916C23.3771 14.5441 23.3965 14.6259 23.186 15.2643Z" fill="#931F1D"/>
<path d="M21.6746 14.2427C21.8973 14.4349 21.9348 14.5915 21.7013 14.7897C21.4169 14.6081 21.4798 14.4491 21.6746 14.2427Z" fill="#931F1D"/>
<path d="M26.4349 29.2567C26.5402 29.456 26.6467 29.6554 26.7653 29.8796C26.4482 29.8741 26.3381 29.6665 26.4349 29.2567Z" fill="#931F1D"/>
</g>
<defs>
<clipPath id="clip0_51_321">
<rect width="37" height="40.4096" fill="white" transform="translate(0 5.05128)"/>
</clipPath>
</defs>
</svg>
