<svg width="151" height="78" viewBox="0 0 151 78" fill="none" xmlns="http://www.w3.org/2000/svg">
<path d="M16.1312 60.3604C17.0948 60.3604 17.9672 60.2693 18.7484 60.087C19.5427 59.8917 20.2263 59.5922 20.7992 59.1885C22.0232 58.3422 22.6352 57.1052 22.6352 55.4776C22.6352 54.0974 22.1859 52.9646 21.2875 52.0792C20.337 51.1677 18.794 50.2497 16.6586 49.3253C14.5362 48.3878 12.9151 47.5544 11.7953 46.8253C10.6885 46.0831 9.81614 45.3344 9.17812 44.5792C8.01927 43.251 7.43984 41.643 7.43984 39.7549C7.43984 37.5674 8.38385 35.7641 10.2719 34.3448C12.0297 33.0036 14.1586 32.3331 16.6586 32.3331C18.6247 32.3331 20.5909 32.6911 22.557 33.4073C23.3773 33.7328 24.1195 34.0909 24.7836 34.4815L24.1 39.6964H22.4594C22.4594 37.8995 21.9711 36.5974 20.9945 35.7901C20.018 34.9698 18.6052 34.5596 16.7562 34.5596C14.2042 34.5596 12.4594 35.393 11.5219 37.0596C11.2224 37.6065 11.0727 38.2185 11.0727 38.8956C11.0727 39.5727 11.1703 40.1846 11.3656 40.7315C11.5609 41.2654 11.9385 41.7927 12.4984 42.3135C13.5922 43.3682 15.6495 44.5271 18.6703 45.7901C22.8891 47.587 25.35 49.7094 26.0531 52.1573C26.2615 52.9255 26.3656 53.7458 26.3656 54.6182C26.3656 55.4776 26.2159 56.2979 25.9164 57.0792C25.6299 57.8474 25.2328 58.5375 24.725 59.1495C24.2172 59.7484 23.6247 60.2693 22.9477 60.712C22.2836 61.1547 21.574 61.5193 20.8187 61.8057C17.4724 63.1078 13.9568 63.0036 10.2719 61.4932C8.93073 60.9333 7.74583 60.2497 6.71719 59.4424L7.5375 53.837H9.19765C9.19765 56.4542 10.0245 58.2771 11.6781 59.3057C12.8109 60.0089 14.2953 60.3604 16.1312 60.3604ZM58.1653 40.3954C60.592 40.3954 62.4053 41.0221 63.6053 42.2754C64.8053 43.5021 65.4053 45.5021 65.4053 48.2754V62.2354H61.9253V48.4354C61.9253 46.7554 61.5653 45.4887 60.8453 44.6354C60.152 43.7821 59.0586 43.3554 57.5653 43.3554C55.4853 43.3554 53.992 43.9554 53.0853 45.1554C52.2053 46.3554 51.7653 48.1021 51.7653 50.3954V62.2354H48.2853V48.4354C48.2853 47.3154 48.1253 46.3821 47.8053 45.6354C47.4853 44.8621 47.0053 44.2887 46.3653 43.9154C45.7253 43.5421 44.8986 43.3554 43.8853 43.3554C42.4453 43.3554 41.312 43.6621 40.4853 44.2754C39.6586 44.8621 39.0586 45.7287 38.6853 46.8754C38.3386 48.0221 38.1653 49.4354 38.1653 51.1154V62.2354H34.6453V40.7954H37.4853L38.0053 43.7154H38.2053C38.6586 42.9687 39.2053 42.3554 39.8453 41.8754C40.512 41.3687 41.2453 40.9954 42.0453 40.7554C42.8453 40.5154 43.672 40.3954 44.5253 40.3954C46.1786 40.3954 47.552 40.6887 48.6453 41.2754C49.7653 41.8621 50.5786 42.7687 51.0853 43.9954H51.2853C52.0053 42.7687 52.9786 41.8621 54.2053 41.2754C55.4586 40.6887 56.7786 40.3954 58.1653 40.3954ZM93.8681 51.4754C93.8681 53.2621 93.6281 54.8487 93.1481 56.2354C92.6948 57.5954 92.0281 58.7554 91.1481 59.7154C90.2948 60.6754 89.2415 61.4087 87.9881 61.9154C86.7615 62.3954 85.3881 62.6354 83.8681 62.6354C82.4548 62.6354 81.1481 62.3954 79.9481 61.9154C78.7481 61.4087 77.7081 60.6754 76.8281 59.7154C75.9481 58.7554 75.2548 57.5954 74.7481 56.2354C74.2681 54.8487 74.0281 53.2621 74.0281 51.4754C74.0281 49.1021 74.4281 47.1021 75.2281 45.4754C76.0281 43.8221 77.1748 42.5687 78.6681 41.7154C80.1615 40.8354 81.9348 40.3954 83.9881 40.3954C85.9348 40.3954 87.6415 40.8354 89.1081 41.7154C90.6015 42.5687 91.7615 43.8221 92.5881 45.4754C93.4415 47.1021 93.8681 49.1021 93.8681 51.4754ZM77.6681 51.4754C77.6681 53.1554 77.8815 54.6221 78.3081 55.8754C78.7615 57.1021 79.4548 58.0487 80.3881 58.7154C81.3215 59.3821 82.5081 59.7154 83.9481 59.7154C85.3881 59.7154 86.5748 59.3821 87.5081 58.7154C88.4415 58.0487 89.1215 57.1021 89.5481 55.8754C90.0015 54.6221 90.2281 53.1554 90.2281 51.4754C90.2281 49.7687 90.0015 48.3154 89.5481 47.1154C89.0948 45.9154 88.4015 44.9954 87.4681 44.3554C86.5615 43.6887 85.3748 43.3554 83.9081 43.3554C81.7215 43.3554 80.1348 44.0754 79.1481 45.5154C78.1615 46.9554 77.6681 48.9421 77.6681 51.4754ZM106.127 47.7154C106.127 48.1421 106.1 48.7021 106.047 49.3954C106.02 50.0887 105.994 50.6887 105.967 51.1954H106.127C106.287 50.9821 106.527 50.6754 106.847 50.2754C107.167 49.8754 107.487 49.4754 107.807 49.0754C108.154 48.6487 108.447 48.3021 108.687 48.0354L115.527 40.7954H119.647L110.967 49.9554L120.247 62.2354H116.007L108.567 52.2354L106.127 54.3554V62.2354H102.647V31.8354H106.127V47.7154ZM135.494 40.3954C137.334 40.3954 138.907 40.7954 140.214 41.5954C141.547 42.3954 142.561 43.5287 143.254 44.9954C143.974 46.4354 144.334 48.1287 144.334 50.0754V52.1954H129.654C129.707 54.6221 130.321 56.4754 131.494 57.7554C132.694 59.0087 134.361 59.6354 136.494 59.6354C137.854 59.6354 139.054 59.5154 140.094 59.2754C141.161 59.0087 142.254 58.6354 143.374 58.1554V61.2354C142.281 61.7154 141.201 62.0621 140.134 62.2754C139.067 62.5154 137.801 62.6354 136.334 62.6354C134.307 62.6354 132.507 62.2221 130.934 61.3954C129.387 60.5687 128.174 59.3421 127.294 57.7154C126.441 56.0621 126.014 54.0487 126.014 51.6754C126.014 49.3287 126.401 47.3154 127.174 45.6354C127.974 43.9554 129.081 42.6621 130.494 41.7554C131.934 40.8487 133.601 40.3954 135.494 40.3954ZM135.454 43.2754C133.774 43.2754 132.441 43.8221 131.454 44.9154C130.494 45.9821 129.921 47.4754 129.734 49.3954H140.654C140.654 48.1687 140.467 47.1021 140.094 46.1954C139.721 45.2887 139.147 44.5821 138.374 44.0754C137.627 43.5421 136.654 43.2754 135.454 43.2754Z" fill="#031926"/>
<g clip-path="url(#clip0_51_307)">
<path d="M58.6814 6.18887C58.7904 6.53242 59.0083 6.88104 58.9941 7.21781C58.8046 11.8277 57.812 16.2972 55.166 20.5788C52.1551 25.446 49.9663 30.4959 49.5067 35.8319C49.4357 36.6577 49.4972 37.4937 49.4665 38.323C49.4522 38.6733 49.3575 39.0202 49.2935 39.3993C48.1351 39.3536 47.7135 38.9001 47.4742 38.4347C47.171 37.8441 46.9649 37.2247 46.8536 36.6137C46.1334 32.6909 46.9886 28.922 48.9595 25.2937C50.4566 22.5402 52.0959 19.8207 53.7423 17.1045C55.2086 14.6844 56.0448 12.1493 56.8621 9.6074C57.189 8.59199 57.5894 7.58674 57.9707 6.5798C58.0229 6.44442 58.1508 6.32257 58.2455 6.19395C58.39 6.19395 58.5369 6.19057 58.6814 6.18887Z" fill="#ABB9B8"/>
<path d="M75.7208 35.0043C74.2355 34.7319 73.8352 34.0617 73.6456 33.3746C73.2572 31.9513 72.9374 30.5145 72.6886 29.0744C71.9993 25.0906 72.6673 21.1492 73.4088 17.2043C74.4155 11.8498 74.868 6.47489 74.2545 1.07125C74.2142 0.715859 74.3539 0.352006 74.4061 0C75.3915 0.00169234 75.4176 0.478932 75.5289 0.822476C75.8937 1.96142 76.249 3.10713 76.4954 4.26131C77.424 8.60215 77.3648 12.9565 76.7418 17.3126C76.1519 21.4385 75.266 25.5492 75.4034 29.7141C75.446 30.9884 75.6213 32.261 75.716 33.5371C75.7492 33.9805 75.7208 34.4255 75.7208 35.0043Z" fill="#ABB9B8"/>
<path d="M40.3629 39.1269C39.2637 38.9525 38.9463 38.5396 38.7449 38.1148C37.8518 36.2296 37.3023 34.3088 37.75 32.3643C38.2546 30.1693 38.9226 27.9862 39.5835 25.8031C40.3534 23.2595 40.8508 20.7041 41.0854 18.1283C41.1209 17.7391 40.9124 17.2923 41.5355 16.9742C42.1798 16.9945 42.2674 17.2585 42.348 17.4988C42.4664 17.8525 42.5754 18.2096 42.6228 18.5666C43.0326 21.755 42.8478 24.9264 41.9382 28.0894C41.3009 30.303 40.7845 32.5301 40.3723 34.7589C40.1947 35.7134 40.396 36.6933 40.4695 37.6596C40.505 38.1216 40.6542 38.5819 40.3652 39.1252L40.3629 39.1269Z" fill="#ABB9B8"/>
<path d="M109.74 28.4194C109.013 27.4412 108.921 26.5325 108.914 25.6152C108.897 23.7249 108.885 21.8345 108.911 19.9442C108.973 15.1109 108.274 10.3808 106.985 5.72348C106.663 4.55407 106.386 3.37282 106.097 2.19665C106.016 1.86833 105.898 1.52479 105.929 1.19986C105.957 0.907086 106.163 0.629543 106.291 0.34523C106.578 0.492463 106.886 0.612619 107.144 0.797084C107.293 0.903702 107.374 1.10847 107.469 1.27771C109.707 5.25301 111.451 9.40262 112.064 13.9415C112.149 14.5643 112.244 15.2056 112.183 15.8234C111.858 19.1488 111.507 22.4725 111.117 25.7929C111.005 26.744 110.678 27.6477 109.738 28.4228L109.74 28.4194Z" fill="#ABB9B8"/>
<path d="M100.554 29.6582C99.7507 29.1844 99.7886 28.5887 99.7342 28.037C99.592 26.6222 99.4902 25.204 99.3788 23.7875C99.0875 20.1033 97.704 16.5934 96.0458 13.1275C95.9013 12.8262 95.7189 12.525 95.6644 12.2153C95.5886 11.7837 96.1263 11.5214 96.6214 11.7753C97.0905 12.0156 97.5406 12.3422 97.8059 12.7044C98.7013 13.9279 99.5518 15.1701 100.35 16.4275C102.74 20.193 102.736 24.1378 101.959 28.125C101.84 28.7359 101.672 29.4044 100.559 29.6599L100.554 29.6582Z" fill="#ABB9B8"/>
<path d="M119.692 14.2969C119.645 16.3734 120.379 18.3636 121.021 20.3656C121.31 21.2625 121.597 22.1595 121.907 23.053C122.916 25.974 122.693 28.8848 121.788 31.7906C121.713 32.0309 121.608 32.2695 121.48 32.4997C121.279 32.8584 120.895 33.1631 120.36 33.0006C120.047 32.9058 119.836 32.5521 119.692 32.283C119.595 32.1003 119.664 31.8616 119.704 31.6518C120.438 27.8034 119.732 24.0329 118.683 20.2573C118.195 18.4973 118.086 16.6763 117.944 14.8773C117.889 14.1903 118.181 13.4778 118.422 12.7958C118.498 12.5825 118.91 12.2982 119.192 12.283C119.737 12.2525 119.68 12.6384 119.687 12.9125C119.699 13.3729 119.69 13.8332 119.69 14.2935L119.692 14.2969Z" fill="#ABB9B8"/>
<path d="M65.8875 34.0515C64.4638 33.6521 64.0493 32.9346 63.8171 32.1663C63.1065 29.8173 63.0472 27.4565 63.701 25.0923C64.2767 23.0073 64.9376 20.9325 65.4043 18.8357C65.7217 17.4057 65.7667 15.9452 65.9396 14.4983C65.9847 14.1293 66.0557 13.7638 66.1149 13.3965C66.2192 13.383 66.3234 13.3695 66.43 13.3559C66.6124 13.5353 66.8943 13.6961 66.9583 13.8958C67.162 14.5135 67.342 15.1413 67.4297 15.7743C67.8869 19.0896 67.2662 22.349 66.4347 25.6034C66.1055 26.8912 65.8733 28.1994 65.7596 29.5042C65.672 30.5213 65.8402 31.5503 65.8828 32.5741C65.9017 33.0192 65.8852 33.4643 65.8852 34.0498L65.8875 34.0515Z" fill="#ABB9B8"/>
<path d="M83.9811 5.80472C84.2298 6.18718 84.5899 6.54765 84.7012 6.95889C84.9334 7.80675 85.1016 8.67661 85.1726 9.54648C85.4048 12.3778 85.9496 15.2158 85.3432 18.0505C85.0139 19.5939 84.5543 21.1204 84.0758 22.635C83.576 24.2207 83.2965 25.798 83.8034 27.4193C83.8295 27.5022 83.8579 27.597 83.8413 27.6782C83.7608 28.0827 83.8105 28.7173 83.5499 28.8408C82.8819 29.159 82.4887 28.5802 82.1665 28.1571C81.3374 27.0689 80.9347 25.8437 81.0792 24.5457C81.2166 23.3323 81.3966 22.1019 81.7685 20.9325C83.0572 16.8794 83.287 12.745 83.1922 8.57338C83.1804 8.04876 83.133 7.51736 83.2041 6.99951C83.2586 6.60519 83.4694 6.22611 83.6115 5.84195C83.7347 5.82841 83.8579 5.81656 83.9811 5.80302V5.80472Z" fill="#ABB9B8"/>
<path d="M132.072 38.5227C131.425 38.1182 131.551 37.5902 131.52 37.1197C131.444 35.9165 131.472 34.7099 131.394 33.5066C131.238 31.1763 130.236 28.9864 129.137 26.8151C128.952 26.4496 128.72 26.0806 128.668 25.7032C128.635 25.4714 128.902 25.2192 129.035 24.9755C129.329 25.0737 129.708 25.1177 129.902 25.2768C131.78 26.832 133.183 28.5785 133.678 30.6245C134.154 32.5961 134.095 34.5829 133.593 36.5528C133.401 37.3059 133.18 38.0827 132.074 38.5244L132.072 38.5227Z" fill="#ABB9B8"/>
<path d="M30.2003 27.1705C30.2311 27.5428 30.3448 27.9236 30.2785 28.2857C29.8569 30.6009 29.402 32.9126 28.9425 35.2226C28.8738 35.5713 28.7743 35.9266 28.5895 36.2499C28.4971 36.4123 28.1821 36.6036 27.9641 36.607C27.7462 36.6104 27.4382 36.4242 27.3222 36.2651C27.1682 36.0553 27.1374 35.7913 27.0995 35.5476C26.6968 32.9092 27.5543 30.4164 28.8524 27.9811C29.0301 27.6477 29.447 27.3803 29.755 27.0825C29.9042 27.1113 30.0511 27.14 30.2003 27.1688V27.1705Z" fill="#ABB9B8"/>
<path d="M92.3456 22.8669C92.4688 23.1935 92.7128 23.5235 92.6938 23.845C92.5588 25.9232 92.3859 28.0014 92.175 30.0779C92.1419 30.4164 91.9358 30.7701 91.6918 31.0679C91.3838 31.4419 90.7584 31.3895 90.5594 30.9732C90.4221 30.6821 90.3794 30.347 90.4173 30.039C90.6826 27.9642 90.9622 25.8894 91.2914 23.8197C91.3459 23.4744 91.6681 23.1495 91.8671 22.8161C92.0258 22.8347 92.1869 22.8516 92.3456 22.8703V22.8669Z" fill="#ABB9B8"/>
</g>
<defs>
<clipPath id="clip0_51_307">
<rect width="107" height="39.3993" fill="white" transform="translate(27)"/>
</clipPath>
</defs>
</svg>
