<svg width="171" height="64" viewBox="0 0 171 64" fill="none" xmlns="http://www.w3.org/2000/svg">
<path d="M67.0453 42.1762C68.0089 42.1762 68.8812 42.0851 69.6625 41.9028C70.4568 41.7075 71.1404 41.408 71.7133 41.0044C72.9372 40.158 73.5492 38.921 73.5492 37.2934C73.5492 35.9132 73.1 34.7804 72.2016 33.895C71.251 32.9835 69.7081 32.0656 67.5727 31.1411C65.4503 30.2036 63.8292 29.3702 62.7094 28.6411C61.6026 27.8989 60.7302 27.1502 60.0922 26.395C58.9333 25.0669 58.3539 23.4588 58.3539 21.5708C58.3539 19.3833 59.2979 17.5799 61.1859 16.1606C62.9437 14.8195 65.0727 14.1489 67.5727 14.1489C69.5388 14.1489 71.5049 14.507 73.4711 15.2231C74.2914 15.5486 75.0336 15.9067 75.6977 16.2973L75.0141 21.5122H73.3734C73.3734 19.7153 72.8852 18.4132 71.9086 17.6059C70.932 16.7856 69.5193 16.3755 67.6703 16.3755C65.1182 16.3755 63.3734 17.2088 62.4359 18.8755C62.1365 19.4223 61.9867 20.0343 61.9867 20.7114C61.9867 21.3885 62.0844 22.0005 62.2797 22.5473C62.475 23.0812 62.8526 23.6085 63.4125 24.1294C64.5062 25.1841 66.5635 26.3429 69.5844 27.6059C73.8031 29.4028 76.2641 31.5252 76.9672 33.9731C77.1755 34.7413 77.2797 35.5617 77.2797 36.4341C77.2797 37.2934 77.1299 38.1137 76.8305 38.895C76.544 39.6632 76.1469 40.3533 75.6391 40.9653C75.1312 41.5643 74.5388 42.0851 73.8617 42.5278C73.1977 42.9705 72.488 43.3351 71.7328 43.6216C68.3865 44.9236 64.8708 44.8195 61.1859 43.3091C59.8448 42.7492 58.6599 42.0656 57.6312 41.2583L58.4516 35.6528H60.1117C60.1117 38.27 60.9385 40.0929 62.5922 41.1216C63.725 41.8247 65.2094 42.1762 67.0453 42.1762ZM95.7594 22.2112C98.3994 22.2112 100.519 23.1312 102.119 24.9712C103.746 26.8112 104.559 29.5846 104.559 33.2912C104.559 35.7179 104.186 37.7712 103.439 39.4512C102.719 41.1046 101.693 42.3579 100.359 43.2112C99.0527 44.0379 97.506 44.4512 95.7194 44.4512C94.626 44.4512 93.6527 44.3046 92.7994 44.0112C91.946 43.7179 91.2127 43.3446 90.5994 42.8912C90.0127 42.4112 89.506 41.8912 89.0794 41.3312H88.8394C88.8927 41.7846 88.946 42.3579 88.9994 43.0512C89.0527 43.7446 89.0794 44.3446 89.0794 44.8512V53.6512H85.5594V22.6112H88.4394L88.9194 25.5312H89.0794C89.506 24.9179 90.0127 24.3579 90.5994 23.8512C91.2127 23.3446 91.9327 22.9446 92.7594 22.6512C93.6127 22.3579 94.6127 22.2112 95.7594 22.2112ZM95.1194 25.1712C93.6794 25.1712 92.5194 25.4512 91.6394 26.0112C90.7594 26.5446 90.1194 27.3579 89.7194 28.4512C89.3194 29.5446 89.106 30.9312 89.0794 32.6112V33.2912C89.0794 35.0512 89.266 36.5446 89.6394 37.7712C90.0127 38.9979 90.6394 39.9312 91.5194 40.5712C92.426 41.2112 93.6527 41.5312 95.1994 41.5312C96.506 41.5312 97.5727 41.1712 98.3994 40.4512C99.2527 39.7312 99.8794 38.7579 100.279 37.5312C100.706 36.2779 100.919 34.8512 100.919 33.2512C100.919 30.7979 100.439 28.8379 99.4794 27.3712C98.546 25.9046 97.0927 25.1712 95.1194 25.1712ZM116.889 22.6112V44.0512H113.369V22.6112H116.889ZM115.169 14.5712C115.702 14.5712 116.169 14.7579 116.569 15.1312C116.995 15.4779 117.209 16.0379 117.209 16.8112C117.209 17.5579 116.995 18.1179 116.569 18.4912C116.169 18.8646 115.702 19.0512 115.169 19.0512C114.582 19.0512 114.089 18.8646 113.689 18.4912C113.289 18.1179 113.089 17.5579 113.089 16.8112C113.089 16.0379 113.289 15.4779 113.689 15.1312C114.089 14.7579 114.582 14.5712 115.169 14.5712ZM135.481 44.4512C133.588 44.4512 131.895 44.0646 130.401 43.2912C128.935 42.5179 127.775 41.3179 126.921 39.6912C126.095 38.0646 125.681 35.9846 125.681 33.4512C125.681 30.8112 126.121 28.6646 127.001 27.0112C127.881 25.3579 129.068 24.1446 130.561 23.3712C132.081 22.5979 133.801 22.2112 135.721 22.2112C136.815 22.2112 137.868 22.3312 138.881 22.5712C139.895 22.7846 140.721 23.0512 141.361 23.3712L140.281 26.2912C139.641 26.0512 138.895 25.8246 138.041 25.6112C137.188 25.3979 136.388 25.2912 135.641 25.2912C134.201 25.2912 133.015 25.5979 132.081 26.2112C131.148 26.8246 130.455 27.7312 130.001 28.9312C129.548 30.1312 129.321 31.6246 129.321 33.4112C129.321 35.1179 129.548 36.5712 130.001 37.7712C130.455 38.9712 131.135 39.8779 132.041 40.4912C132.948 41.1046 134.081 41.4112 135.441 41.4112C136.615 41.4112 137.641 41.2912 138.521 41.0512C139.428 40.8112 140.255 40.5179 141.001 40.1712V43.2912C140.281 43.6646 139.481 43.9446 138.601 44.1312C137.748 44.3446 136.708 44.4512 135.481 44.4512ZM157.58 22.2112C159.42 22.2112 160.993 22.6112 162.3 23.4112C163.633 24.2112 164.647 25.3446 165.34 26.8112C166.06 28.2512 166.42 29.9446 166.42 31.8912V34.0112H151.74C151.793 36.4379 152.407 38.2912 153.58 39.5712C154.78 40.8246 156.447 41.4512 158.58 41.4512C159.94 41.4512 161.14 41.3312 162.18 41.0912C163.247 40.8246 164.34 40.4512 165.46 39.9712V43.0512C164.367 43.5312 163.287 43.8779 162.22 44.0912C161.153 44.3312 159.887 44.4512 158.42 44.4512C156.393 44.4512 154.593 44.0379 153.02 43.2112C151.473 42.3846 150.26 41.1579 149.38 39.5312C148.527 37.8779 148.1 35.8646 148.1 33.4912C148.1 31.1446 148.487 29.1312 149.26 27.4512C150.06 25.7712 151.167 24.4779 152.58 23.5712C154.02 22.6646 155.687 22.2112 157.58 22.2112ZM157.54 25.0912C155.86 25.0912 154.527 25.6379 153.54 26.7312C152.58 27.7979 152.007 29.2912 151.82 31.2112H162.74C162.74 29.9846 162.553 28.9179 162.18 28.0112C161.807 27.1046 161.233 26.3979 160.46 25.8912C159.713 25.3579 158.74 25.0912 157.54 25.0912Z" fill="#031926"/>
<g clip-path="url(#clip0_43_403)">
<path d="M20.373 26.8893C21.1069 27.8189 22.0988 28.4187 23.1032 29.0138C24.0921 29.6002 25.2538 29.9525 26.0128 30.7295C25.7618 31.1062 25.5523 31.4 25.3651 31.7048C24.2284 33.5664 22.579 34.9533 20.6466 36.068C20.0385 36.4192 19.5049 36.3408 19.0342 35.85C18.6806 35.4818 18.4034 35.0445 18.1255 34.6207C17.4336 33.5651 16.7646 32.4959 16.0743 31.4396C15.9331 31.225 15.7346 31.0437 15.4869 30.7609C15.368 31.1685 15.2994 31.4664 15.1939 31.7535C14.4859 33.6653 13.1738 34.9648 10.9441 35.3152C9.95821 35.4709 9.02 35.2834 8.11636 34.9291C4.6082 33.5578 2.87337 30.3691 3.76258 26.9369C4.38769 24.5216 5.72692 22.4591 7.48095 20.6179C9.90476 18.0733 12.8082 16.1808 16.3856 15.3121C20.0226 14.4295 23.0775 15.5507 25.5945 17.9467C27.0289 19.3125 27.6252 21.0358 27.0973 22.9745C26.7939 24.0899 26.1155 24.9822 25.147 25.6841C24.3064 26.2944 23.3423 26.6736 22.3201 26.9374C21.6712 27.1045 21.0354 27.0842 20.3745 26.8886L20.373 26.8893ZM22.8886 17.1552L22.9115 17.175C20.6483 15.8283 18.2461 15.6151 15.7492 16.5051C11.2787 18.0968 7.98897 20.8994 5.88873 24.8898C5.34886 25.9141 4.98555 26.9987 4.91824 28.142C4.86587 29.0279 4.83053 29.9293 5.44941 30.7037L5.42865 30.6808C5.6474 31.0717 5.81619 31.4993 6.09814 31.8466C6.75701 32.6563 7.61838 33.2578 8.6036 33.7044C11.3789 34.9617 14.0314 33.3246 14.4549 30.56C14.5643 29.8535 14.2857 29.4579 13.5806 29.1378C13.1805 30.532 12.397 31.1894 10.8921 31.3914C9.75798 31.543 8.87834 31.1223 8.38831 30.1589C7.99285 29.3798 7.84787 28.5504 7.97488 27.6951C8.30529 25.4814 9.45999 23.6813 11.2713 22.2412C11.8281 21.7989 12.4657 21.4438 13.0941 21.03C13.0985 21.0165 13.13 20.9687 13.1312 20.9196C13.1538 20.28 13.1847 20.2567 13.7975 20.5665C14.128 20.7342 14.3316 20.6017 14.4801 20.3522C14.5517 20.2335 14.5584 20.081 14.6315 19.8068C14.9768 20.2986 15.3393 20.2318 15.7235 20.0794C15.9038 20.0073 16.1027 19.9686 16.2957 19.9255C16.6478 19.8454 16.9979 19.8092 17.153 19.4035C17.2381 19.1828 17.563 19.1186 17.7123 19.3234C17.961 19.6634 18.2835 19.5724 18.6155 19.5847C19.322 19.6097 20.0323 19.6272 20.7281 19.7229C21.0307 19.7652 21.132 19.6722 21.2476 19.4787C21.2578 19.4623 21.3449 19.4847 21.4364 19.4936C21.4231 19.6365 21.4083 19.7801 21.3937 19.946C22.5873 20.6378 23.015 21.6687 22.7698 22.9257C22.5232 24.1945 21.5972 24.9772 20.3041 25.4973C20.8014 25.9893 21.2883 26.1736 21.8998 26.0574C22.8575 25.8752 23.7541 25.5567 24.5494 25.0219C25.5107 24.3757 26.1096 23.5168 26.2997 22.4372C25.7526 22.0117 25.4573 21.9397 26.4122 21.3285C25.9374 19.4385 24.7808 18.0363 22.8871 17.1559L22.8886 17.1552ZM12.9437 27.6869C13.6394 27.6094 14.1777 27.8959 14.667 28.2654C15.0386 28.548 15.3985 28.8515 15.7216 29.1813C17.1803 30.6614 18.2006 32.3851 18.94 34.2567C19.1215 34.717 19.3609 35.1159 19.9382 35.3842C21.8526 34.2006 23.6371 32.8692 24.8004 30.8616C23.9557 30.4882 23.1634 30.142 22.3733 29.789C21.7119 29.4931 20.8925 29.3247 20.43 28.8577C19.5999 28.0203 18.7005 27.1774 18.3569 26.0084C18.1641 25.3526 18.1114 24.6958 18.3959 24.069C18.7854 23.2057 18.457 22.4165 18.1934 21.6163C18.1597 21.5125 17.9441 21.4591 17.7896 21.3689C17.8835 22.1741 17.9866 22.8685 18.0365 23.5677C18.0555 23.8375 18.0877 24.2327 17.6801 24.2723C17.2497 24.3144 17.2882 23.8977 17.1999 23.6411C17.0106 23.0917 16.8581 22.5308 16.6621 21.9829C16.5118 21.5625 16.2339 21.584 15.9348 21.7952C16.2613 22.496 16.5809 23.1389 16.8555 23.7992C16.9541 24.0356 16.9872 24.3149 16.9641 24.5671C16.939 24.8521 16.6068 24.9387 16.4037 24.7262C16.2747 24.5911 16.2082 24.4072 16.0968 24.2557C15.7723 23.8128 15.4405 23.3738 15.1116 22.9332C15.0572 22.9612 15.0013 22.9898 14.9476 23.0193C15.0975 23.3504 15.2761 23.6725 15.3906 24.0143C15.5059 24.3577 15.8211 24.7307 15.2988 25.1199C14.4655 24.5412 14.1369 23.5639 13.2955 22.9764C13.1713 23.0606 13.0412 23.1479 12.8678 23.2667C13.094 23.5214 13.2817 23.7475 13.4855 23.9578C13.8287 24.309 14.1888 24.646 14.5298 25.0002C14.7381 25.2157 14.956 25.4467 14.6171 25.8144C13.459 25.5982 12.8377 24.6238 11.9279 24.0621C11.6476 24.2004 11.602 24.3784 11.8558 24.5482C12.4078 24.9171 12.9751 25.2651 13.5359 25.6221C13.8088 25.7969 14.137 25.9416 13.9961 26.3754C13.3532 26.5507 12.8186 26.2641 12.2909 26.0355C11.7492 25.8011 11.2418 25.5024 10.7191 25.2321C10.7461 25.4624 10.8413 25.6223 10.9877 25.7036C11.6185 26.0564 12.2646 26.3881 12.9064 26.7259C13.5563 27.0688 13.5645 27.2323 12.9496 27.6876L12.9437 27.6869ZM12.9157 28.8864C12.5289 28.8091 12.3845 28.982 12.2928 29.2229C12.0831 29.774 11.605 30.0193 11.0461 30.1813C10.8525 30.2378 10.6626 30.3092 10.4123 30.3929C11.4853 30.8597 12.7351 30.0841 12.9157 28.8864ZM12.0857 28.0713C11.1927 27.9333 10.3005 27.7967 9.24886 27.6339C10.0062 28.0875 11.0645 28.2488 12.0857 28.0713ZM20.8745 24.2356C20.5717 24.1376 20.3324 24.074 20.1071 23.9828C19.7509 23.8376 19.5589 23.9306 19.5842 24.2828C19.5961 24.4463 19.7046 24.6031 19.7964 24.8299C20.1891 24.6134 20.5178 24.4317 20.873 24.2363L20.8745 24.2356ZM11.3726 29.1044L9.71258 29.0898C10.2277 29.1609 10.7404 29.5108 11.3726 29.1044ZM19.6076 22.9012C19.8535 22.3744 20.0382 21.9982 19.8326 21.582C19.8072 21.5316 19.5987 21.5585 19.4393 21.5471C19.4939 21.9868 19.5415 22.3649 19.6076 22.9012ZM21.0895 22.245C20.9341 22.5875 20.8459 22.7837 20.7554 22.9793C21.0029 22.8138 21.1142 22.569 21.0895 22.245Z" fill="#6CAFB8"/>
<path d="M5.45096 30.7029C5.50701 30.5567 5.51994 30.3395 5.62953 30.2814C5.82075 30.1796 6.09689 30.0993 6.29331 30.1513C6.5776 30.2272 6.6455 30.5352 6.47537 30.7269C6.35144 30.8669 6.06119 30.9264 5.84073 30.9333C5.70727 30.9366 5.56855 30.7711 5.43094 30.6815L5.45096 30.7029Z" fill="#6CAFB8"/>
<path d="M13.0541 18.1789C13.293 18.4588 13.5201 18.6125 13.5387 18.7855C13.5534 18.9178 13.3318 19.1544 13.1662 19.2041C12.893 19.2865 12.6428 19.1018 12.6511 18.846C12.6576 18.6638 12.8566 18.489 13.0541 18.1789Z" fill="#6CAFB8"/>
<path d="M24.757 21.8313C24.532 21.9766 24.3803 22.1532 24.2467 22.1416C24.1095 22.13 23.9913 21.9354 23.8654 21.8212C24.0071 21.6981 24.1337 21.512 24.2965 21.475C24.3952 21.4542 24.5534 21.6656 24.7584 21.8306L24.757 21.8313Z" fill="#6CAFB8"/>
<path d="M17.8389 17.6502C17.6534 17.41 17.4661 17.2694 17.4535 17.1156C17.4456 17.0079 17.6563 16.8122 17.8014 16.7806C18.0533 16.7258 18.2481 16.8961 18.2161 17.1342C18.1977 17.2779 18.0265 17.4049 17.8375 17.6509L17.8389 17.6502Z" fill="#6CAFB8"/>
<path d="M19.5541 17.6309C19.3204 17.7844 19.1811 17.9491 19.0307 17.9591C18.7823 17.9767 18.5874 17.799 18.6659 17.5612C18.7073 17.4338 18.9285 17.2811 19.0686 17.28C19.2036 17.2797 19.3387 17.4638 19.5548 17.6287L19.5541 17.6309Z" fill="#6CAFB8"/>
<path d="M10.1696 32.4461C10.3204 32.6836 10.4708 32.8207 10.4715 32.9583C10.472 33.0549 10.2326 33.2486 10.1572 33.2276C10.0058 33.1842 9.80745 33.0326 9.79209 32.91C9.77826 32.7978 9.98185 32.6617 10.1681 32.4469L10.1696 32.4461Z" fill="#6CAFB8"/>
<path d="M15.2619 18.4472C15.1252 18.2528 14.9541 18.0965 14.9855 18.0412C15.0608 17.9112 15.2217 17.7895 15.3749 17.7482C15.4382 17.7306 15.668 17.9593 15.6469 18.0279C15.6026 18.1643 15.438 18.2674 15.2619 18.4472Z" fill="#6CAFB8"/>
<path d="M24.4114 24.1218C24.2307 24.2518 24.1098 24.4089 23.9947 24.4046C23.873 24.4018 23.7572 24.2451 23.6395 24.1546C23.7591 24.0391 23.8608 23.877 24.0073 23.826C24.078 23.801 24.2338 23.9856 24.4129 24.121L24.4114 24.1218Z" fill="#6CAFB8"/>
<path d="M22.8886 17.1551C22.8789 17.2831 22.9158 17.4374 22.8492 17.5294C22.773 17.6356 22.6134 17.7119 22.4742 17.7442C22.416 17.7573 22.2472 17.6204 22.2521 17.5638C22.2676 17.4328 22.3242 17.251 22.4294 17.1951C22.5537 17.1295 22.7457 17.1763 22.9094 17.1743L22.8872 17.1559L22.8886 17.1551Z" fill="#6CAFB8"/>
<path d="M10.3546 21.4594C10.2165 21.2843 10.084 21.1827 10.0665 21.0669C10.055 20.9926 10.2363 20.812 10.2917 20.8264C10.4238 20.8574 10.6028 20.9593 10.6262 21.061C10.6472 21.1508 10.4857 21.2785 10.3531 21.4602L10.3546 21.4594Z" fill="#6CAFB8"/>
<path d="M7.92226 31.0428C7.73107 31.1521 7.6107 31.266 7.48243 31.2759C7.40724 31.281 7.31794 31.1181 7.23491 31.0303C7.34729 30.9409 7.44768 30.813 7.57583 30.7808C7.6436 30.7646 7.75938 30.9139 7.92151 31.0413L7.92226 31.0428Z" fill="#6CAFB8"/>
<path d="M6.26015 25.2787C6.30204 25.3988 6.39633 25.5274 6.37179 25.6332C6.34361 25.7502 6.20618 25.8449 6.11747 25.9482C6.03152 25.8656 5.89251 25.7916 5.87583 25.6995C5.86138 25.6119 5.9781 25.5054 6.03808 25.4076C6.11235 25.3639 6.18735 25.3216 6.26162 25.2779L6.26015 25.2787Z" fill="#6CAFB8"/>
<path d="M6.30705 28.4709C6.42799 28.6194 6.56268 28.7143 6.55869 28.8021C6.55539 28.8801 6.3931 29.0175 6.31048 29.0114C6.21533 29.0062 6.06941 28.878 6.05865 28.7903C6.04793 28.7101 6.1883 28.6139 6.30705 28.4709Z" fill="#6CAFB8"/>
<path d="M7.82066 25.5922C7.72922 25.4435 7.63583 25.3498 7.62796 25.2495C7.62327 25.196 7.76675 25.1316 7.84241 25.0723C7.91732 25.1587 8.0261 25.2352 8.05314 25.3331C8.0674 25.3836 7.93657 25.4694 7.82066 25.5922Z" fill="#6CAFB8"/>
<path d="M12.4679 32.2468C12.3968 32.028 12.3373 31.9318 12.3427 31.8396C12.3475 31.7608 12.4275 31.6843 12.4736 31.6066C12.5683 31.6661 12.6887 31.7105 12.7488 31.7933C12.7726 31.8258 12.6618 31.9405 12.4679 32.2468Z" fill="#6CAFB8"/>
<path d="M8.70349 33.314C8.5864 33.1989 8.44434 33.1041 8.46185 33.0653C8.50045 32.9691 8.61293 32.8984 8.69438 32.8174C8.76257 32.8868 8.87867 32.9521 8.88567 33.0249C8.89341 33.0992 8.79133 33.1832 8.70496 33.3133L8.70349 33.314Z" fill="#6CAFB8"/>
<path d="M17.4332 26.5047C17.5808 26.6694 17.7494 26.7766 17.7463 26.877C17.7431 26.9811 17.571 27.0806 17.472 27.1818C17.3631 27.0904 17.1821 27.01 17.1668 26.9061C17.1515 26.8058 17.3051 26.6842 17.4325 26.5033L17.4332 26.5047Z" fill="#6CAFB8"/>
<path d="M21.1837 32.5648C21.2703 32.7664 21.3808 32.8942 21.357 32.9977C21.3303 33.1176 21.1877 33.2169 21.0961 33.3254C20.996 33.2258 20.854 33.1384 20.8151 33.0205C20.7941 32.9567 20.9499 32.8432 21.183 32.5634L21.1837 32.5648Z" fill="#6CAFB8"/>
<path d="M18.1738 30.3994C17.9027 30.5926 17.7751 30.7363 17.7167 30.716C17.597 30.673 17.5123 30.5413 17.4137 30.4447C17.5262 30.3665 17.631 30.2438 17.7533 30.2257C17.858 30.2093 17.9831 30.3146 18.1738 30.3994Z" fill="#6CAFB8"/>
<path d="M15.9471 26.1382C15.812 26.2297 15.7263 26.3312 15.6483 26.3267C15.5739 26.3223 15.4551 26.2072 15.4549 26.1406C15.4539 26.0762 15.5772 25.9648 15.6522 25.9596C15.7287 25.9537 15.8136 26.0528 15.9456 26.1389L15.9471 26.1382Z" fill="#6CAFB8"/>
<path d="M31.6373 25.8455C31.2508 25.25 30.642 24.558 30.3231 23.7657C29.5667 21.8824 29.5159 19.9593 30.3758 18.0626C30.8988 16.9091 31.6008 15.8538 32.524 14.9477C33.6952 13.7988 34.9056 12.6838 36.1317 11.5851C38.3026 9.64174 40.4269 7.66459 42.1261 5.33164C42.8798 4.29825 43.5567 3.24836 43.8262 1.99941C43.8911 1.69779 44.1804 1.43754 44.3655 1.15803C44.6585 1.34311 45.0087 1.48016 45.2363 1.71929C47.4269 4.01824 48.7236 6.75539 49.6517 9.65748C50.514 12.3549 50.979 15.1015 50.5941 17.9246C50.3123 19.9885 49.6229 21.9337 48.4585 23.7145C46.0017 27.4705 41.2666 29.2352 36.6668 28.1112C35.5969 27.8496 34.543 27.5277 33.4979 27.1901C33.1219 27.0681 32.8567 27.1185 32.568 27.3393C31.8451 27.8929 31.0918 28.4155 30.3808 28.9817C29.7462 29.4862 29.2833 30.1188 28.9993 30.8534C28.9083 31.0883 28.7984 31.3665 28.4939 31.2469C28.3144 31.177 28.139 30.898 28.1284 30.7041C28.1138 30.4283 28.2141 30.1309 28.33 29.8683C28.6917 29.0565 29.2162 28.3439 29.8686 27.7016C30.474 27.1058 31.0387 26.4769 31.6358 25.8462L31.6373 25.8455ZM33.9157 26.398C34.1543 26.4712 34.2836 26.526 34.4187 26.548C35.4814 26.7219 36.5406 26.9218 37.6106 27.051C41.615 27.5321 44.8744 26.3328 47.0649 23.1365C48.6733 20.7886 49.3452 18.1462 49.1603 15.3602C48.8708 10.9937 47.4009 6.95899 45.0327 3.19523C44.9428 3.05318 44.8176 2.92925 44.638 2.71206C44.3446 4.21175 43.4756 5.32485 42.6398 6.45627C41.4136 8.11416 40.0142 9.63734 38.46 11.0368C37.0725 12.2855 35.6597 13.5099 34.2863 14.7719C33.6623 15.3456 33.0621 15.9517 32.5344 16.6027C31.0715 18.4082 30.5683 20.4292 31.0926 22.6497C31.3314 23.6619 31.8064 24.5586 32.6221 25.4668C32.9359 24.9536 33.2134 24.5633 33.4252 24.1453C34.1992 22.6151 34.8241 21.031 35.1941 19.3746C35.3369 18.7348 35.7431 18.4052 36.3878 18.1415C36.1725 19.9328 35.8343 21.6232 35.0249 23.3075C35.9904 22.758 36.2642 22.4964 36.6169 21.8029C37.4086 20.2488 38.0613 18.6467 38.3714 16.9483C38.4978 16.2537 38.9257 15.8496 39.582 15.4066C39.5634 17.1547 39.0357 18.6926 38.5213 20.2498C39.0886 19.8394 39.5264 19.3557 39.8339 18.7563C40.7161 17.0327 41.3318 15.2279 41.7672 13.3702C41.9751 12.4808 42.5247 11.7851 43.0085 11.0468C43.072 11.0663 43.1363 11.0874 43.1998 11.107C42.9652 12.4293 42.7314 13.753 42.4969 15.0753C43.0134 14.3947 43.4449 13.685 43.7376 12.9273C44.6666 10.5164 45.0339 8.0265 44.8413 5.46812C44.8278 5.27938 44.8858 5.08562 44.925 4.79906C45.4396 5.52815 45.5553 6.55328 45.5591 9.83284C45.7068 9.87258 45.8567 9.91305 45.983 9.94701C46.1522 10.4676 45.9772 10.8556 45.6198 11.2086C45.0254 11.7931 44.7761 12.5267 44.5244 13.3584C44.987 13.1154 45.3481 12.9245 45.7652 12.7049C45.8936 13.3135 45.6905 13.6936 45.2303 13.9931C43.9153 14.8524 43.0761 16.0396 42.4479 17.5211C43.3291 17.2198 44.0658 16.7784 44.9308 16.6289C44.9659 17.3134 44.6845 17.6702 44.0736 17.9092C43.2905 18.2142 42.5559 18.6266 41.7944 18.9819C41.0587 19.326 40.6398 19.9173 40.1775 20.6726C41.4183 20.3061 42.5281 20.0067 43.708 20.0124C43.5641 20.8857 43.5016 20.9122 42.7639 21.164C41.2732 21.6738 39.7936 22.2094 38.3215 22.7637C38.0087 22.8813 37.7518 23.125 37.4695 23.3108C38.3197 23.2864 39.0879 23.1101 39.8669 23.0141C40.6348 22.9181 41.4157 22.9031 42.2561 22.8483C42.1143 23.4018 41.8728 23.6245 41.3651 23.6931C39.4726 23.945 37.6484 24.4395 35.8701 25.0913C35.1354 25.3602 34.5528 25.7953 33.9172 26.3972L33.9157 26.398Z" fill="#6CAFB8"/>
<path d="M36.6027 14.5093C36.6528 14.8004 36.7398 15.0911 36.7413 15.3848C36.7446 15.7484 36.6454 16.1142 36.6472 16.4785C36.6527 17.1521 36.2105 17.4908 35.5199 17.8546C35.8199 16.6589 35.7634 15.5196 36.3358 14.5121C36.4243 14.5114 36.5128 14.5107 36.6012 14.51L36.6027 14.5093Z" fill="#6CAFB8"/>
<path d="M39.573 11.6639C40.1942 12.7631 39.9178 14.1162 38.9687 14.853C38.7416 14.1179 39.0723 12.2581 39.573 11.6639Z" fill="#6CAFB8"/>
<path d="M45.8583 17.1927C45.9377 16.25 45.9377 16.2463 46.6588 16.0757C47.0874 15.9749 47.5196 15.8221 48.0644 16.0848C47.5261 16.8325 46.6292 16.7971 45.8583 17.1927Z" fill="#6CAFB8"/>
<path d="M46.5073 20.1579C45.8848 20.7271 45.149 20.6146 44.4708 20.8005C44.6241 19.7473 45.3935 19.5034 46.5073 20.1579Z" fill="#6CAFB8"/>
<path d="M42.8652 8.17796C43.4067 8.80572 43.3059 9.30837 42.4343 10.3501C42.3498 9.38347 42.4952 8.65296 42.8652 8.17796Z" fill="#6CAFB8"/>
<path d="M46.7627 12.9551C46.6536 12.0719 47.2517 11.6457 48.3013 11.845C47.9896 12.4801 47.3059 12.6036 46.7627 12.9551Z" fill="#6CAFB8"/>
<path d="M42.6412 23.4854C43.032 22.7203 43.5678 22.6745 44.3408 23.2915C44.0531 23.4752 43.4866 23.5398 42.6412 23.4854Z" fill="#6CAFB8"/>
<path d="M47.2157 9.30692C47.0782 9.53401 46.9707 9.71403 46.8361 9.93962C46.6233 9.54077 46.7498 9.32987 47.2157 9.30692Z" fill="#6CAFB8"/>
<path d="M34.6604 50.2014C33.5969 50.4825 32.6614 50.8377 31.6923 50.9605C30.2058 51.1476 28.7468 50.9292 27.4115 50.2243C26.7283 49.8631 26.1971 49.3661 25.8318 48.7169C25.4643 48.0633 25.0975 47.4111 24.7167 46.7642C24.3039 46.0648 24.2198 45.3123 24.3155 44.5421C24.4581 43.4049 24.8332 42.3328 25.464 41.342C25.9367 40.6 26.599 40.0365 27.4018 39.6786C27.4027 39.5589 27.423 39.5 27.4007 39.4593C25.8974 36.7237 27.0491 33.7214 30.085 32.5082C30.6568 32.2799 31.2547 32.0998 31.8557 31.9442C33.635 31.4857 35.2197 31.9098 36.6597 32.915C36.8366 33.0385 37.001 33.1778 37.1942 33.3265C38.6234 32.2967 40.3142 32.1185 41.9824 32.1457C45.8107 32.2103 47.9342 34.6629 47.3353 38.194C47.1075 39.5408 46.4806 40.7048 45.1594 41.3716C45.4594 42.2295 45.8034 43.0313 46.014 43.8624C46.2622 44.8456 46.2577 45.8597 45.9388 46.834C45.5785 47.9357 45.3624 49.0995 44.5485 50.0314C43.3753 51.3752 41.88 52.1593 39.989 52.116C39.1726 52.0971 38.3526 51.957 37.548 51.8072C36.3678 51.5873 35.4223 50.9694 34.6603 50.1976L34.6604 50.2014ZM36.3092 33.4508C35.9557 33.2632 35.6154 33.0317 35.2342 32.8919C33.9198 32.4055 32.5616 32.4279 31.2181 32.7522C28.9282 33.3068 27.1897 35.3003 27.6379 37.7853C27.7471 38.3889 27.9272 39.012 28.7416 39.2221C28.6048 39.5867 28.468 39.9476 28.3959 40.1392C27.9708 40.2214 27.6965 40.2131 27.5038 40.3231C26.8383 40.7075 26.2908 41.227 26.0317 41.9153C25.7253 42.7303 25.4507 43.5644 25.275 44.4112C24.974 45.8589 25.6353 47.0121 26.862 47.836C29.0248 49.2883 32.0111 49.2242 34.2652 47.2661C34.2237 47.0731 34.1844 46.8809 34.1331 46.6389C34.9248 46.5903 35.4617 46.8962 35.9973 47.3909C35.7724 47.5325 35.6062 47.6364 35.4335 47.7455C35.5035 47.8847 35.5453 47.9826 35.6025 48.0706C36.3262 49.1601 37.5177 49.5754 38.7401 49.9637C41.1066 50.7133 43.0295 49.4656 43.8459 47.9938C44.3582 47.0693 44.6549 46.0878 44.7065 45.0458C44.7555 44.0647 44.4723 43.1665 43.9136 42.3501C43.7383 42.0934 43.4417 41.9084 43.1454 41.643C43.1516 41.5523 43.1521 41.3657 43.1778 41.1848C43.2063 40.9801 43.2583 40.7782 43.2814 40.6658C43.6388 40.6221 43.9657 40.6686 44.1731 40.5436C46.8131 38.9297 46.9767 35.9388 44.7836 34.1648C42.9459 32.678 39.9796 32.4654 37.8602 33.6499L37.854 34.1823C37.231 34.1983 36.645 34.2437 36.0567 33.9829C36.1347 33.8143 36.1982 33.6792 36.3047 33.4494L36.3092 33.4508ZM35.3166 49.1583C35.182 49.6597 35.3843 49.8597 35.6965 50.0572C37.1102 50.9511 38.6906 51.2785 40.3706 51.296C41.0085 51.3021 41.5902 51.1266 42.0948 50.7167C40.9197 50.9415 39.7602 51.0501 38.5854 50.7344C37.4076 50.4164 36.2884 50.0125 35.3174 49.1598L35.3166 49.1583ZM32.3001 49.6666C31.1829 49.6567 30.0715 49.6475 28.9594 49.6368C29.8906 50.0348 30.8563 50.1261 31.842 50.0731C32.1015 50.0592 32.3631 50.0126 32.3001 49.6666ZM33.7195 49.6369C33.8013 49.6192 33.8831 49.6015 33.9626 49.583C33.8923 49.3917 33.8228 49.2019 33.7077 48.8846C33.4258 49.2883 33.583 49.461 33.7181 49.6377L33.7195 49.6369ZM32.7749 49.7789C32.8531 49.7909 32.9328 49.8022 33.011 49.8142C33.0309 49.6661 33.0523 49.5172 33.073 49.3706C33.011 49.3614 32.949 49.3522 32.8877 49.3445C32.8501 49.4905 32.8132 49.6343 32.7756 49.7803L32.7749 49.7789Z" fill="#6CAFB8"/>
<path d="M42.6062 46.0584C42.1562 46.3229 41.7467 46.5648 41.3106 46.8202C41.4298 47.0572 41.5058 47.2083 41.6108 47.4171C41.0588 47.4824 40.4898 47.0905 40.0596 47.6448C40.0831 47.7688 40.1157 47.9366 40.1528 48.1355C40.0282 48.1343 39.9015 48.162 39.8777 48.1295C39.5449 47.6481 39.0372 47.5695 38.4238 47.5936C38.3486 47.7496 38.2632 47.9257 38.1303 48.1989C37.9361 47.5513 37.6145 47.0921 36.8792 46.9253C36.7467 47.1182 36.5878 47.3469 36.4121 47.6011C35.8921 47.13 36.7813 46.5097 36.1485 46.0611C36.0324 46.1356 35.9037 46.2184 35.6795 46.3614C35.8795 45.6476 36.1454 44.995 35.7246 44.3053C35.5428 44.3818 35.3589 44.4613 35.1727 44.5401C35.6404 43.987 35.8435 43.4486 35.3492 42.8153C34.8717 43.3231 34.3897 43.822 33.9328 44.3378C33.8397 44.4434 33.8243 44.6153 33.7992 44.7604C33.7713 44.9294 33.7737 45.1034 33.7628 45.2953C32.8075 44.934 32.7303 44.9829 32.6437 45.9479C32.2556 46.052 32.1429 45.493 31.6585 45.6485C31.2174 45.791 31.1569 46.0754 31.0301 46.5225C30.7393 45.8817 30.288 45.8822 29.7349 46.03C29.6452 46.2196 29.5364 46.4487 29.4153 46.7046C28.975 46.543 29.1897 46.1309 28.9946 45.8863C28.3756 45.6785 28.4231 46.3324 28.0494 46.513C27.7652 46.1725 28.1458 45.884 28.1525 45.4631C27.877 45.3679 27.5704 45.2625 27.3215 45.1759C27.3752 44.8558 27.4553 44.5109 27.4853 44.162C27.5335 43.6211 27.5235 43.0859 27.8927 42.6056C28.0774 42.3655 28.137 42.0424 28.2776 41.6963C28.6775 41.5936 29.1347 41.4428 29.0656 40.8969C29.5849 40.7739 30.0843 40.6555 30.7044 40.5086C30.3521 39.9515 30.0667 39.498 29.7382 38.9771C29.8312 38.8567 29.9961 38.6435 30.1954 38.3884C29.8612 38.2208 29.6062 38.0926 29.3526 37.9675C29.4998 37.4541 29.925 37.6998 30.263 37.599C30.3424 37.4148 30.4336 37.2022 30.5189 37.0037C30.2893 36.8048 30.096 36.6375 29.9004 36.4695C29.9194 36.4225 29.9398 36.3748 29.9587 36.3278C30.217 36.3555 30.4767 36.3825 30.7386 36.4102C30.8986 36.1616 30.8832 35.785 30.6924 35.2804C30.8613 35.2739 31.0204 35.237 31.1569 35.2694C31.6885 35.3954 31.7657 35.339 31.7004 34.8191C31.6889 34.7225 31.6862 34.6251 31.6726 34.4289C31.8884 34.5083 32.0323 34.5406 32.1521 34.6096C32.5722 34.8524 32.7724 34.7795 32.8034 34.3406C32.8199 34.0973 32.6828 33.8099 33.2013 33.6743C33.2617 33.9601 33.3183 34.2198 33.387 34.5442C33.5862 34.5687 33.826 34.5966 34.009 34.6182C34.3245 34.4321 34.1639 33.8809 34.6055 33.9935C35.0603 34.1104 34.6397 34.4921 34.7191 34.742C35.0812 35.1935 35.4434 34.92 35.8908 34.5916C35.8443 35.3125 36.2482 35.5636 36.7245 35.8595C37.05 36.0614 37.1521 36.5699 37.3836 36.9971C37.9624 36.551 38.5874 36.1744 38.2435 35.2365C38.3262 35.2649 38.4082 35.2955 38.491 35.3238C38.5833 35.4963 38.6756 35.6689 38.8177 35.9332C39.0315 35.7694 39.289 35.6522 39.4009 35.4625C39.5048 35.2862 39.4533 35.0293 39.4699 34.8084C40.0437 34.8232 39.7348 35.2874 40.0452 35.5548C40.1504 35.3704 40.2235 35.2434 40.2952 35.1135C40.3734 34.9709 40.4501 34.8253 40.6825 34.706C40.7412 34.9368 40.7984 35.1683 40.8518 35.3813C41.5883 35.6499 41.357 34.6599 42.0351 34.7312C41.959 35.0069 41.888 35.2669 41.804 35.5746C41.9727 35.6744 42.1561 35.7815 42.3262 35.8806C42.5753 35.7136 42.7885 35.5707 43.1633 35.3187C43.0897 35.636 43.086 35.7832 43.0232 35.9012C42.7397 36.4305 42.7352 36.4254 43.3543 36.6443C43.485 36.6909 43.6092 36.7539 43.7268 36.8221C43.7631 36.8426 43.7649 36.9125 43.8045 37.0133C43.596 37.0588 43.3927 37.1035 43.2026 37.1451C42.8232 37.5169 43.3171 37.7591 43.3701 38.0524C43.1215 38.1726 42.8342 38.2343 42.6934 38.4034C42.5637 38.5576 42.5923 38.8243 42.5434 39.0767C42.1601 39.2001 41.9339 39.4019 41.865 39.682C41.1877 39.9103 40.5708 40.1188 39.9311 40.3335C40.326 40.6625 40.8834 40.7945 41.6033 40.7294C41.4825 40.9013 41.3932 41.0292 41.2848 41.1854C41.5837 41.5221 42.0662 41.7161 42.2257 42.2026C42.2691 42.3369 42.7072 42.358 43.0942 42.4687C42.4964 42.8109 42.4864 43.185 42.7953 43.6116C42.8614 43.7025 42.9183 43.8783 42.8693 43.95C42.564 44.3955 42.9217 44.9928 42.4467 45.4173C42.3564 45.499 42.5491 45.8529 42.6047 46.0592L42.6062 46.0584ZM38.326 38.9303C37.5665 39.0723 36.8577 38.9143 36.1633 38.5048C36.5794 37.3707 36.2082 36.5661 35.0517 36.0844C34.1176 35.6954 33.1828 35.7466 32.3892 36.3066C31.5625 36.8893 31.3029 37.7753 31.4049 38.7143C31.4614 39.2388 31.6607 39.7347 32.4793 39.732C32.3579 40.0831 32.2633 40.3515 32.1732 40.6214C32.0838 40.8853 32.0004 41.1499 31.8885 41.4942C31.1493 40.9885 30.6476 41.3931 30.2212 41.8039C29.8169 42.1959 29.4622 42.6537 29.1925 43.1331C29.0339 43.4139 29.0122 43.8014 29.0544 44.1282C29.1495 44.8583 29.6968 45.1924 30.4831 45.0851C31.195 44.9881 31.9 44.8406 32.4628 44.414C33.0542 43.967 33.6284 43.4859 34.1317 42.9556C35.1286 41.9054 35.2214 41.8765 36.5817 42.4176C37.008 42.5882 37.1989 42.8648 37.2407 43.2533C37.2724 43.5408 37.251 43.8332 37.2649 44.1223C37.2972 44.8194 37.487 45.4767 37.9176 46.057C38.6118 46.9921 39.8286 47.1633 40.7 46.3603C42.1571 45.018 42.5022 42.793 40.194 41.4638C39.6734 41.1645 39.14 40.814 38.4573 41.1457C38.3859 41.0221 38.3161 40.9386 38.2847 40.8429C37.9835 39.8906 38.1402 39.6723 39.1824 39.5661C39.38 39.5467 39.579 39.534 39.775 39.5005C40.9731 39.303 41.6381 38.5425 42.0625 37.5719C42.2922 37.0496 42.0689 36.7785 41.4529 36.7424C39.9489 36.6552 38.7748 37.2354 37.8021 38.2601C37.9832 38.4914 38.1264 38.6732 38.326 38.9303Z" fill="#6CAFB8"/>
</g>
<defs>
<clipPath id="clip0_43_403">
<rect width="50.7827" height="44.7026" fill="white" transform="matrix(0.889684 -0.456576 0.449242 0.89341 0 23.1862)"/>
</clipPath>
</defs>
</svg>
