<svg width="214" height="176" viewBox="0 0 214 176" fill="none" xmlns="http://www.w3.org/2000/svg">
<path fill-rule="evenodd" clip-rule="evenodd" d="M43.7568 19.3598H5.61049V37.9449H10.929C13.1423 37.9449 14.9365 39.7339 14.9365 41.9407V115.45H20.8389V154.202H100.989V115.45H109.805V154.202H189.955V115.45H191.558C195.738 115.45 199.478 117.327 201.978 120.282V19.3598H164.653V16.1632H205.184V162.414C205.183 169.917 199.083 176 191.558 176H4.00749C1.79423 176 2.30678e-05 174.211 0 172.004V41.9407C2.70732e-05 40.3022 0.989138 38.894 2.40449 38.2773V16.1632H43.7568V19.3598ZM20.8389 167.12H189.955V164.722H20.8389V167.12Z" fill="#031926"/>
<path fill-rule="evenodd" clip-rule="evenodd" d="M100.187 153.403H21.6404V115.45H100.187V153.403ZM52.0974 146.121H69.4587V144.522H52.0974V146.121Z" fill="#031926"/>
<path fill-rule="evenodd" clip-rule="evenodd" d="M189.154 153.403H110.607V115.45H189.154V153.403ZM141.064 146.128H158.425V144.53H141.064V146.128Z" fill="#031926"/>
<path d="M23.5977 85.3268L24.0225 81.3877H30.7342C31.9236 81.3877 32.8865 81.7548 33.6228 82.489C34.3591 83.1949 34.7273 84.1408 34.7273 85.3268V98.584C34.7273 99.7699 34.2741 100.73 33.3679 101.464C32.49 102.17 31.4563 102.523 30.2669 102.523H28.2704V111.036H24.2348V85.3268H23.5977ZM30.4793 85.3268H28.2704V98.584H30.4793C30.6209 98.584 30.6917 98.5134 30.6917 98.3722V85.5385C30.6917 85.3974 30.6209 85.3268 30.4793 85.3268Z" fill="#031926"/>
<path d="M42.1608 111.036V85.3268H41.5236L41.9484 81.3877H46.1964V111.036H42.1608Z" fill="#031926"/>
<path d="M52.9881 85.3268V81.3877H64.6699V85.3268H60.8468V111.036H56.8112V85.3268H52.9881Z" fill="#031926"/>
<path d="M85.2774 111.036V85.3268H84.6402L85.065 81.3877H91.6918L93.7308 97.3557L95.8123 81.3877H102.312V111.036H98.2761V87.9952L95.1326 106.801H92.3715L89.313 88.5034V111.036H85.2774Z" fill="#031926"/>
<path d="M113.156 111.036H109.121L111.415 85.3268H110.65L111.075 81.3877H118.848L121.482 111.036H117.447L116.979 105.954H113.623L113.156 111.036ZM113.963 102.015H116.639L115.323 87.2751L113.963 102.015Z" fill="#031926"/>
<path d="M131.88 102.565V107.055C131.88 107.196 131.951 107.267 132.093 107.267H133.792C133.933 107.267 134.004 107.196 134.004 107.055V99.4311L130.648 97.9487C130.394 97.8639 130.04 97.7228 129.586 97.5251C129.133 97.2992 128.723 96.9745 128.354 96.5509C128.015 96.1274 127.845 95.5485 127.845 94.8144V85.1573C127.845 83.9714 128.213 83.0255 128.949 82.3195C129.686 81.5854 130.648 81.2183 131.838 81.2183H134.047C135.236 81.2183 136.199 81.5854 136.935 82.3195C137.672 83.0255 138.04 83.9714 138.04 85.1573V91.4259L134.004 91.0871V85.3691C134.004 85.2279 133.933 85.1573 133.792 85.1573H132.093C131.951 85.1573 131.88 85.2279 131.88 85.3691V94.2214L135.236 95.7038C135.491 95.8168 135.845 95.9721 136.298 96.1697C136.751 96.3674 137.148 96.678 137.488 97.1015C137.856 97.5251 138.04 98.104 138.04 98.8381V107.267C138.04 108.453 137.672 109.413 136.935 110.147C136.199 110.853 135.236 111.206 134.047 111.206H131.838C130.648 111.206 129.686 110.853 128.949 110.147C128.213 109.413 127.845 108.453 127.845 107.267V102.565H131.88Z" fill="#031926"/>
<path d="M144.858 85.3268V81.3877H156.54V85.3268H152.717V111.036H148.681V85.3268H144.858Z" fill="#031926"/>
<path d="M173.422 107.097L173.083 111.036H163.78V85.3268H163.142L163.567 81.3877H173.422L172.998 85.3268H167.815V94.2214H172.573L172.148 98.1604H167.815V107.097H173.422Z" fill="#031926"/>
<path d="M179.995 85.3268L180.42 81.3877H187.131C188.321 81.3877 189.284 81.7548 190.02 82.489C190.756 83.1949 191.124 84.1408 191.124 85.3268V98.584C191.124 99.2052 190.997 99.7699 190.742 100.278C190.487 100.758 190.147 101.168 189.723 101.507L192.441 111.036H188.363L185.942 102.523H184.668V111.036H180.632V85.3268H179.995ZM186.877 85.3268H184.668V98.584H186.877C187.018 98.584 187.089 98.5134 187.089 98.3722V85.5385C187.089 85.3974 187.018 85.3268 186.877 85.3268Z" fill="#031926"/>
<path d="M49.6693 7.62475V4.87486H57.8246V7.62475H55.1556V25.573H52.3383V7.62475H49.6693Z" fill="#031926"/>
<path d="M82.0658 22.8231L81.8286 25.573H75.334V7.62475H74.8892L75.1857 4.87486H82.0658L81.7692 7.62475H78.1513V13.8342H81.4727L81.1761 16.5841H78.1513V22.8231H82.0658Z" fill="#031926"/>
<path d="M99.2611 25.573L102.049 15.2239L99.2611 4.87486H102.227L103.798 12.0601L105.4 4.87486H108.365L105.548 15.2239L108.365 25.573H105.4L103.798 18.3878L102.227 25.573H99.2611Z" fill="#031926"/>
<path d="M128.084 25.573H125.266L126.868 7.62475H126.334L126.631 4.87486H132.057L133.896 25.573H131.079L130.753 22.0248H128.41L128.084 25.573ZM128.647 19.2749H130.515L129.596 8.98492L128.647 19.2749Z" fill="#031926"/>
<path d="M153.61 19.6593V22.7936C153.61 22.8921 153.66 22.9414 153.759 22.9414H154.945C155.044 22.9414 155.093 22.8921 155.093 22.7936V17.4712L152.75 16.4363C152.573 16.3771 152.325 16.2786 152.009 16.1406C151.693 15.9829 151.406 15.7562 151.149 15.4605C150.912 15.1648 150.793 14.7607 150.793 14.2482V7.50648C150.793 6.67855 151.05 6.01818 151.564 5.52537C152.078 5.01284 152.75 4.75658 153.581 4.75658H155.123C155.953 4.75658 156.625 5.01284 157.139 5.52537C157.653 6.01818 157.91 6.67855 157.91 7.50648V11.8827L155.093 11.6461V7.65432C155.093 7.55576 155.044 7.50648 154.945 7.50648H153.759C153.66 7.50648 153.61 7.55576 153.61 7.65432V13.8342L155.953 14.8691C156.131 14.948 156.378 15.0564 156.695 15.1944C157.011 15.3324 157.288 15.5492 157.525 15.8449C157.782 16.1406 157.91 16.5447 157.91 17.0572V22.9414C157.91 23.7693 157.653 24.4396 157.139 24.9521C156.625 25.4449 155.953 25.6913 155.123 25.6913H153.581C152.75 25.6913 152.078 25.4449 151.564 24.9521C151.05 24.4396 150.793 23.7693 150.793 22.9414V19.6593H153.61Z" fill="#031926"/>
<path d="M69.6686 78.3031L68.5016 78.0537L67.0012 77.9706L66.5844 77.555C66.251 77.3888 65.9176 77.278 65.5842 77.2226C65.2507 77.1672 64.9451 77.1395 64.6673 77.1395C64.1115 76.3638 63.5558 75.5603 63.0001 74.7292C62.5 73.8427 62.0554 72.9285 61.6664 71.9865L62.4166 72.0696V71.9034L62.1666 71.6541C61.6664 65.8362 61.4164 59.9075 61.4164 53.868C61.0274 53.9788 60.7773 54.2282 60.6662 54.616C60.6106 54.9485 60.5828 55.2532 60.5828 55.5303C60.3605 55.9181 60.0827 56.1398 59.7493 56.1952C59.4158 56.1952 59.1102 56.306 58.8323 56.5276C56.3317 58.8548 53.8866 61.4312 51.497 64.2571C49.1075 67.0275 46.8569 69.7702 44.7452 72.4852C43.6894 72.7622 42.7725 73.2332 41.9945 73.8981C41.2165 74.5076 40.2718 74.8123 39.1604 74.8123C38.1045 74.8123 37.3821 74.3691 36.9931 73.4825C36.6041 72.596 36.4096 71.7095 36.4096 70.8229C36.4096 69.4377 36.6319 68.0802 37.0765 66.7504C37.5766 65.3652 38.0767 64.0631 38.5769 62.8442C39.3549 62.6225 39.6605 62.0684 39.4938 61.1819C39.9384 60.4616 40.5219 59.4643 41.2443 58.1899C42.0223 56.9155 42.7725 55.558 43.4949 54.1174C44.2729 52.6768 44.9119 51.3192 45.4121 50.0449C45.9678 48.7151 46.2456 47.6623 46.2456 46.8866C46.2456 46.7204 46.2178 46.5818 46.1623 46.471C46.1067 46.3048 46.0511 46.1386 45.9956 45.9724L46.0789 45.5568C45.2453 45.6122 44.4951 45.723 43.8283 45.8892C43.217 46.0001 42.4946 46.0555 41.661 46.0555C41.6055 46.0555 41.1331 46.2217 40.244 46.5541C39.4104 46.8312 38.3824 47.1913 37.1598 47.6346C35.9929 48.0779 34.9092 48.4934 33.909 48.8813C32.9643 49.2137 32.3808 49.4354 32.1585 49.5462L31.6584 49.1306C34.6036 47.8562 37.4377 46.4156 40.1606 44.8088C42.9392 43.2019 45.7733 41.7336 48.6629 40.4038H48.7463C49.4131 40.4038 50.2189 40.5424 51.1636 40.8194C52.1083 41.0964 52.9419 41.512 53.6643 42.0661C54.3867 42.5648 54.7479 43.2296 54.7479 44.0608C54.7479 44.504 54.3589 45.2521 53.5809 46.3048C52.8029 47.3022 51.886 48.4103 50.8302 49.6293C49.7743 50.8483 48.7463 51.9564 47.746 52.9538C46.8013 53.8957 46.1067 54.5329 45.6621 54.8654C45.551 55.3086 45.3843 55.6965 45.162 56.0289C44.9397 56.306 44.8286 56.6661 44.8286 57.1094C44.8286 57.3864 44.8564 57.6081 44.9119 57.7743H44.4951L44.2451 58.1068C44.2451 58.3284 44.1895 58.6054 44.0784 58.9379C43.9672 59.2149 43.7449 59.4088 43.4115 59.5197V59.1872C43.6338 58.6885 43.6894 58.2176 43.5782 57.7743L44.1617 56.8601L43.5782 57.0263H43.3282V57.1094L42.578 58.1068C42.578 58.3838 42.6057 58.6885 42.6613 59.021C42.7725 59.298 42.828 59.6028 42.828 59.9352L42.4113 60.2677C42.189 60.988 41.8555 61.7083 41.411 62.4286C41.022 63.1489 40.8275 63.9246 40.8275 64.7557C40.2718 65.6423 39.7439 66.4734 39.2437 67.2491C38.7992 68.0248 38.5769 68.9668 38.5769 70.0749C38.5769 70.4074 38.5769 70.7398 38.5769 71.0723C38.6325 71.4047 38.7158 71.7095 38.827 71.9865C39.1604 72.0973 39.4938 72.2359 39.8272 72.4021C40.1606 72.5129 40.5219 72.5683 40.9108 72.5683C41.4666 72.5683 42.3557 72.0696 43.5782 71.0723C44.8008 70.0195 46.1623 68.7174 47.6627 67.166C49.2186 65.5592 50.7468 63.8969 52.2472 62.1793C53.7476 60.4616 55.0258 58.9102 56.0816 57.525C57.193 56.1398 57.9154 55.1424 58.2489 54.5329C58.6378 53.868 58.8879 53.12 58.9991 52.2889C59.1658 51.4578 59.3325 50.6821 59.4992 49.9618C59.4992 49.8509 59.4714 49.7678 59.4158 49.7124C59.4158 49.6016 59.4158 49.4908 59.4158 49.38C59.4158 49.1029 59.4436 48.8536 59.4992 48.632C59.5548 48.3549 59.5825 48.0779 59.5825 47.8008C59.5825 47.5238 59.527 47.2467 59.4158 46.9697C59.3047 46.6373 59.1936 46.3602 59.0824 46.1386L58.9991 45.9724C59.3325 45.8615 59.8048 45.6399 60.4161 45.3075C61.0274 44.975 61.6387 44.6703 62.2499 44.3932C62.8612 44.0608 63.3058 43.8945 63.5836 43.8945C64.306 43.8945 64.7784 44.0885 65.0007 44.4763C65.2785 44.8088 65.4175 45.3352 65.4175 46.0555C65.4175 46.7204 65.3897 47.413 65.3341 48.1333C65.2785 48.7982 65.223 49.4631 65.1674 50.128L64.7506 50.2942L64.9173 51.7902L64.5839 52.4551L64.1671 51.9564L63.667 52.6213L64.0004 53.2862L64.5005 53.12L64.7506 53.3694L63.667 54.2005C63.667 54.9208 63.6948 56.0844 63.7503 57.6912C63.8059 59.298 63.8893 61.0711 64.0004 63.0104C64.1115 64.8943 64.2783 66.7781 64.5005 68.662C64.7784 70.4905 65.1118 72.0696 65.5008 73.3994C65.8898 74.7292 66.3899 75.5603 67.0012 75.8928L68.835 74.9786L69.0018 74.4799L69.5852 74.3968C69.5852 74.286 69.613 74.1474 69.6686 73.9812C69.7242 73.7596 69.7242 73.5656 69.6686 73.3994V72.9007L69.3352 72.7345C69.613 72.1804 69.8631 71.5709 70.0854 70.906C70.3077 70.1857 70.5022 69.5208 70.6689 68.9114L71.169 68.7451V67.166C71.3357 66.889 71.4469 66.6119 71.5024 66.3349C71.6136 66.0024 71.6969 65.6977 71.7525 65.4206L72.336 64.8389L72.0859 64.174H72.7528L72.8361 63.7584L72.0859 63.1766L72.6694 62.013C72.7805 61.4035 72.8917 60.7109 73.0028 59.9352C73.1695 59.1595 73.5308 58.6054 74.0865 58.273L74.0031 56.9432L74.1698 57.1925L75.0034 57.525C74.8922 57.2479 74.7255 56.9709 74.5032 56.6938C74.281 56.4168 74.0865 56.1675 73.9197 55.9458C74.3643 54.339 74.92 52.2335 75.5869 49.6293C76.2537 47.0251 77.0595 44.3101 78.0042 41.4843C78.9489 38.6031 80.0881 35.8881 81.4218 33.3393C82.7555 30.7905 84.2559 28.7127 85.923 27.1059C87.6457 25.499 89.5906 24.6956 91.7579 24.6956C92.0357 24.6956 92.5081 24.751 93.1749 24.8618C93.8974 24.9172 94.592 25.0281 95.2588 25.1943C95.9257 25.3605 96.2591 25.6098 96.2591 25.9423C94.8698 26.1639 93.6473 26.5795 92.5914 27.189C91.5912 27.7431 90.6187 28.5742 89.674 29.6823C89.6184 30.2918 89.2294 30.8182 88.507 31.2615C88.0624 32.0926 87.5067 33.1731 86.8399 34.5029C86.173 35.7772 85.5062 37.1347 84.8394 38.5754C84.2281 40.016 83.7002 41.4012 83.2556 42.731C82.811 44.0608 82.5887 45.1966 82.5887 46.1386C82.5887 46.2494 82.6999 46.2494 82.9222 46.1386L83.0055 46.5541L82.9222 47.1359L82.6721 47.3022L82.172 46.9697C82.3943 47.2467 82.5054 47.6069 82.5054 48.0502C82.5054 48.6597 82.3387 49.1029 82.0053 49.38L80.9216 49.6293L80.6716 50.0449L81.1717 51.2915C80.2826 53.7849 79.5879 56.3614 79.0878 59.021C78.5877 61.6806 77.7819 64.2571 76.6705 66.7504H76.087V67.166C76.087 67.4984 76.1704 67.8863 76.3371 68.3296L75.7536 69.1607L75.5869 69.2438V69.1607L75.6702 68.4127L75.5035 68.662L75.3368 69.6594L75.6702 69.7425C75.1701 70.6844 74.6699 71.7649 74.1698 72.9839C73.7252 74.2028 73.1418 75.311 72.4193 76.3084C71.7525 77.3057 70.8356 77.9706 69.6686 78.3031ZM29.9912 50.3773L29.8245 50.2942L30.6581 49.5462L31.0749 49.9618L29.9912 50.3773ZM78.421 61.7637L78.5877 61.0988L78.9211 60.9326V61.5144L78.421 61.7637ZM47.1625 68.4958L47.4126 67.7478C47.3015 67.8586 47.1347 68.0525 46.9125 68.3296L47.1625 68.4958Z" fill="#031926"/>
<path d="M84.7436 76.6408C84.2435 76.6408 83.6322 76.3084 82.9098 75.6435C82.243 74.9786 81.6872 74.4799 81.2427 74.1474C81.1315 73.4271 80.937 72.7899 80.6592 72.2359C80.3813 71.6264 80.2424 70.9892 80.2424 70.3243C80.2424 69.3269 80.6036 68.1633 81.326 66.8335C82.104 65.4483 83.0765 64.0908 84.2435 62.761C85.466 61.4312 86.6886 60.3231 87.9111 59.4366C89.1893 58.55 90.3285 58.1068 91.3287 58.1068V57.9405C92.1067 58.1068 92.8291 58.6054 93.496 59.4366C94.2184 60.2677 94.5796 61.0434 94.5796 61.7637C94.5796 62.4286 94.1628 63.1212 93.3293 63.8415C92.5513 64.5064 91.5788 65.1436 90.4118 65.7531C89.3004 66.3072 88.189 66.7504 87.0776 67.0829C86.0217 67.4153 85.1882 67.5816 84.5769 67.5816V67.7478C84.1879 68.3573 83.7989 69.133 83.4099 70.0749C83.0765 70.9615 82.9098 71.7926 82.9098 72.5683C82.9098 72.8453 82.9932 73.1501 83.1599 73.4825C83.5489 73.7596 84.049 73.8981 84.6603 73.8981C85.2715 73.8427 85.7717 73.8427 86.1607 73.8981L86.244 73.9812L86.4941 73.5656C87.2165 73.5102 87.9111 73.344 88.578 73.067V72.5683H89.0781V72.319L89.4116 72.4021C89.6894 72.2913 89.8839 72.1804 89.995 72.0696C90.1618 71.9034 90.3563 71.7649 90.5785 71.6541L91.0787 71.9034V71.8203L92.5791 70.4074H92.6624L92.9125 70.5736V70.4905C93.6349 69.8256 94.4129 69.2161 95.2465 68.662C96.08 68.1079 96.6913 67.3876 97.0803 66.5011L97.9972 65.8362L98.1639 66.0024C98.1639 66.3903 98.025 66.7504 97.7471 67.0829C97.4693 67.4153 97.1359 67.637 96.7469 67.7478C96.3023 68.8005 95.6355 69.6871 94.7463 70.4074C93.9128 71.1277 93.0514 71.8757 92.1623 72.6514H91.9122L91.8289 73.067C90.773 73.7873 89.6616 74.563 88.4946 75.3941C87.3832 76.2252 86.1329 76.6408 84.7436 76.6408ZM86.3274 66.0024H86.4941V65.8362C86.8831 65.7254 87.5499 65.3929 88.4946 64.8389C89.4949 64.2848 90.4396 63.703 91.3287 63.0935C92.2179 62.4286 92.6902 61.9576 92.7458 61.6806H92.8291L92.7458 61.265L92.8291 60.8495C92.7736 60.8495 92.6624 60.8495 92.4957 60.8495C92.329 60.7941 92.1901 60.7663 92.0789 60.7663C91.3565 61.265 90.6341 61.736 89.9117 62.1793C89.1893 62.6225 88.4669 63.0658 87.7444 63.5091H87.5777L87.4944 64.174C87.1609 64.3956 86.9109 64.6726 86.7442 65.0051C86.5775 65.2821 86.4385 65.6146 86.3274 66.0024ZM98.9975 65.7531L98.4973 65.5869L98.414 65.0882L99.2475 64.8389L99.3309 65.0882L98.9975 65.7531Z" fill="#031926"/>
<path d="M99.7216 76.6408C99.2215 76.6408 98.6102 76.3084 97.8878 75.6435C97.2209 74.9786 96.6652 74.4799 96.2207 74.1474C96.1095 73.4271 95.915 72.7899 95.6372 72.2359C95.3593 71.6264 95.2204 70.9892 95.2204 70.3243C95.2204 69.3269 95.5816 68.1633 96.304 66.8335C97.082 65.4483 98.0545 64.0908 99.2215 62.761C100.444 61.4312 101.667 60.3231 102.889 59.4366C104.167 58.55 105.306 58.1068 106.307 58.1068V57.9405C107.085 58.1068 107.807 58.6054 108.474 59.4366C109.196 60.2677 109.558 61.0434 109.558 61.7637C109.558 62.4286 109.141 63.1212 108.307 63.8415C107.529 64.5064 106.557 65.1436 105.39 65.7531C104.278 66.3072 103.167 66.7504 102.056 67.0829C101 67.4153 100.166 67.5816 99.5549 67.5816V67.7478C99.1659 68.3573 98.7769 69.133 98.3879 70.0749C98.0545 70.9615 97.8878 71.7926 97.8878 72.5683C97.8878 72.8453 97.9712 73.1501 98.1379 73.4825C98.5269 73.7596 99.027 73.8981 99.6383 73.8981C100.25 73.8427 100.75 73.8427 101.139 73.8981L101.222 73.9812L101.472 73.5656C102.195 73.5102 102.889 73.344 103.556 73.067V72.5683H104.056V72.319L104.39 72.4021C104.667 72.2913 104.862 72.1804 104.973 72.0696C105.14 71.9034 105.334 71.7649 105.557 71.6541L106.057 71.9034V71.8203L107.557 70.4074H107.64L107.89 70.5736V70.4905C108.613 69.8256 109.391 69.2161 110.224 68.662C111.058 68.1079 111.669 67.3876 112.058 66.5011L112.975 65.8362L113.142 66.0024C113.142 66.3903 113.003 66.7504 112.725 67.0829C112.447 67.4153 112.114 67.637 111.725 67.7478C111.28 68.8005 110.613 69.6871 109.724 70.4074C108.891 71.1277 108.029 71.8757 107.14 72.6514H106.89L106.807 73.067C105.751 73.7873 104.64 74.563 103.473 75.3941C102.361 76.2252 101.111 76.6408 99.7216 76.6408ZM101.305 66.0024H101.472V65.8362C101.861 65.7254 102.528 65.3929 103.473 64.8389C104.473 64.2848 105.418 63.703 106.307 63.0935C107.196 62.4286 107.668 61.9576 107.724 61.6806H107.807L107.724 61.265L107.807 60.8495C107.752 60.8495 107.64 60.8495 107.474 60.8495C107.307 60.7941 107.168 60.7663 107.057 60.7663C106.335 61.265 105.612 61.736 104.89 62.1793C104.167 62.6225 103.445 63.0658 102.722 63.5091H102.556L102.472 64.174C102.139 64.3956 101.889 64.6726 101.722 65.0051C101.555 65.2821 101.417 65.6146 101.305 66.0024ZM113.975 65.7531L113.475 65.5869L113.392 65.0882L114.226 64.8389L114.309 65.0882L113.975 65.7531Z" fill="#031926"/>
<path d="M110.282 77.7213C109.615 77.2226 109.281 76.5577 109.281 75.7266C109.281 75.1171 109.337 74.5353 109.448 73.9812C109.615 73.3717 109.726 72.7622 109.782 72.1527H109.865C111.643 67.2214 113.922 62.7333 116.7 58.6885C119.479 54.5883 122.646 50.6544 126.203 46.8866C126.147 46.4987 126.425 45.917 127.036 45.1412C127.703 44.3655 128.426 43.5898 129.204 42.8141C130.037 42.0384 130.621 41.5397 130.954 41.3181C131.287 41.3181 131.788 41.4566 132.454 41.7336C133.121 42.0107 133.733 42.3431 134.288 42.731C134.844 43.0634 135.122 43.4236 135.122 43.8114C135.122 44.1993 134.816 44.8919 134.205 45.8892C133.594 46.8312 132.899 47.7454 132.121 48.632C131.399 49.4631 130.787 49.9063 130.287 49.9618V49.0475L129.787 49.2968V49.2137L129.287 48.7982C129.009 49.186 128.648 49.5462 128.203 49.8786C127.814 50.1557 127.314 50.2942 126.703 50.2942V50.4604L126.369 51.0422H126.203V51.4578H125.786C125.008 51.4578 124.369 51.7348 123.869 52.2889V53.0369L124.119 53.12V53.0369L124.536 52.7045L124.619 52.7876C124.063 54.1728 123.257 55.5026 122.202 56.777C121.201 58.0513 120.173 59.3257 119.117 60.6001C118.117 61.8745 117.311 63.2597 116.7 64.7557C116.311 65.0328 115.811 65.5592 115.2 66.3349C114.644 67.0552 114.144 67.8309 113.699 68.662C113.255 69.4377 113.033 70.0472 113.033 70.4905C113.033 70.7121 113.033 70.906 113.033 71.0723C113.033 71.2385 113.06 71.4324 113.116 71.6541V71.5709C114.561 70.4074 115.561 69.2992 116.117 68.2465C116.672 67.1383 117.061 66.1964 117.284 65.4206C117.562 64.5895 117.95 63.98 118.451 63.5922C118.951 63.1489 119.895 63.0104 121.285 63.1766V63.0935C121.84 62.5948 122.507 61.9853 123.285 61.265C124.063 60.5447 124.869 59.9075 125.703 59.3534C126.592 58.7994 127.397 58.5223 128.12 58.5223C128.231 58.5223 128.37 58.5777 128.537 58.6885C128.759 58.744 128.898 58.7994 128.953 58.8548L129.537 59.6859C129.537 60.1846 129.342 60.6832 128.953 61.1819C128.564 61.6252 128.231 62.013 127.953 62.3455H127.786V62.6779L123.119 66.5842C123.007 66.8058 122.952 67.0275 122.952 67.2491C122.952 67.7478 123.091 68.385 123.369 69.1607C123.646 69.881 124.035 70.5459 124.536 71.1554C125.091 71.7095 125.675 71.9865 126.286 71.9865H127.286L128.12 71.3216V71.2385L128.37 71.3216L129.454 70.7398L129.537 70.8229C129.37 71.377 128.926 72.0419 128.203 72.8176C127.481 73.5934 126.675 74.286 125.786 74.8954C124.952 75.4495 124.23 75.7266 123.619 75.7266C122.507 75.7266 121.646 75.3664 121.035 74.6461C120.423 73.9258 119.951 73.0947 119.618 72.1527C119.34 71.1554 119.09 70.2966 118.867 69.5763C118.645 68.856 118.367 68.4958 118.034 68.4958C117.589 68.4958 117.145 68.8005 116.7 69.41C116.256 70.0195 115.95 70.4905 115.783 70.8229C115.505 71.0446 115.228 71.2939 114.95 71.5709C114.672 71.848 114.394 72.125 114.116 72.4021H113.949L113.199 73.1501L113.366 73.3163L112.699 74.1474L112.949 74.563H112.699L112.199 75.3941V75.7266H112.116L111.699 75.3941V75.6435H111.615L111.949 75.9759L111.365 76.3915L110.448 77.2226L110.365 77.7213H110.282ZM122.702 66.0024H122.868C123.257 65.7254 123.758 65.3375 124.369 64.8389C124.98 64.2848 125.536 63.703 126.036 63.0935C126.592 62.484 126.87 61.9576 126.87 61.5144L126.62 60.9326L126.536 61.0988C126.258 61.2096 125.786 61.459 125.119 61.8468C124.508 62.1793 124.174 62.5394 124.119 62.9273L123.619 62.6779L123.452 63.0935L123.369 63.0104C122.868 63.3428 122.618 63.8415 122.618 64.5064C122.618 64.7834 122.618 65.0328 122.618 65.2544C122.674 65.476 122.702 65.7254 122.702 66.0024Z" fill="#031926"/>
<path d="M133.097 76.6408C132.596 76.6408 131.985 76.3084 131.263 75.6435C130.596 74.9786 130.04 74.4799 129.596 74.1474C129.484 73.4271 129.29 72.7899 129.012 72.2359C128.734 71.6264 128.595 70.9892 128.595 70.3243C128.595 69.3269 128.957 68.1633 129.679 66.8335C130.457 65.4483 131.429 64.0908 132.596 62.761C133.819 61.4312 135.041 60.3231 136.264 59.4366C137.542 58.55 138.681 58.1068 139.682 58.1068V57.9405C140.46 58.1068 141.182 58.6054 141.849 59.4366C142.571 60.2677 142.932 61.0434 142.932 61.7637C142.932 62.4286 142.516 63.1212 141.682 63.8415C140.904 64.5064 139.932 65.1436 138.765 65.7531C137.653 66.3072 136.542 66.7504 135.43 67.0829C134.375 67.4153 133.541 67.5816 132.93 67.5816V67.7478C132.541 68.3573 132.152 69.133 131.763 70.0749C131.429 70.9615 131.263 71.7926 131.263 72.5683C131.263 72.8453 131.346 73.1501 131.513 73.4825C131.902 73.7596 132.402 73.8981 133.013 73.8981C133.624 73.8427 134.125 73.8427 134.514 73.8981L134.597 73.9812L134.847 73.5656C135.569 73.5102 136.264 73.344 136.931 73.067V72.5683H137.431V72.319L137.764 72.4021C138.042 72.2913 138.237 72.1804 138.348 72.0696C138.515 71.9034 138.709 71.7649 138.931 71.6541L139.432 71.9034V71.8203L140.932 70.4074H141.015L141.265 70.5736V70.4905C141.988 69.8256 142.766 69.2161 143.599 68.662C144.433 68.1079 145.044 67.3876 145.433 66.5011L146.35 65.8362L146.517 66.0024C146.517 66.3903 146.378 66.7504 146.1 67.0829C145.822 67.4153 145.489 67.637 145.1 67.7478C144.655 68.8005 143.988 69.6871 143.099 70.4074C142.266 71.1277 141.404 71.8757 140.515 72.6514H140.265L140.182 73.067C139.126 73.7873 138.015 74.563 136.848 75.3941C135.736 76.2252 134.486 76.6408 133.097 76.6408ZM134.68 66.0024H134.847V65.8362C135.236 65.7254 135.903 65.3929 136.848 64.8389C137.848 64.2848 138.792 63.703 139.682 63.0935C140.571 62.4286 141.043 61.9576 141.099 61.6806H141.182L141.099 61.265L141.182 60.8495C141.126 60.8495 141.015 60.8495 140.849 60.8495C140.682 60.7941 140.543 60.7663 140.432 60.7663C139.709 61.265 138.987 61.736 138.265 62.1793C137.542 62.6225 136.82 63.0658 136.097 63.5091H135.931L135.847 64.174C135.514 64.3956 135.264 64.6726 135.097 65.0051C134.93 65.2821 134.791 65.6146 134.68 66.0024ZM147.35 65.7531L146.85 65.5869L146.767 65.0882L147.6 64.8389L147.684 65.0882L147.35 65.7531Z" fill="#031926"/>
<path d="M144.49 77.0564C143.879 77.0564 143.434 76.7793 143.157 76.2252C142.934 75.7266 142.823 75.2279 142.823 74.7292C142.823 73.2886 143.157 71.7926 143.823 70.2412C144.546 68.6897 145.24 67.2768 145.907 66.0024C146.63 64.6726 146.991 63.6476 146.991 62.9273C146.991 62.5948 146.796 62.4286 146.407 62.4286C146.241 62.4286 145.991 62.484 145.657 62.5948V62.2624L147.658 59.9352V59.8521C147.936 59.5751 148.186 59.298 148.408 59.021C148.63 58.744 148.852 58.4946 149.075 58.273L149.825 57.7743C150.436 57.8297 151.02 57.9959 151.575 58.273C152.187 58.4946 152.576 58.9656 152.742 59.6859L152.659 59.769C152.715 60.2123 152.52 60.6832 152.076 61.1819C151.631 61.6806 151.242 62.0684 150.909 62.3455C150.575 62.955 150.186 63.5368 149.742 64.0908C149.353 64.5895 148.991 65.1436 148.658 65.7531V66.5842L148.325 67.2491H148.158C147.991 67.5816 147.824 67.9417 147.658 68.3296C147.547 68.7174 147.491 69.133 147.491 69.5763L147.908 70.2412C148.075 70.0749 148.38 69.8256 148.825 69.4931C149.325 69.1053 149.769 68.7174 150.158 68.3296C150.547 67.9417 150.742 67.6647 150.742 67.4984L151.659 66.6673C151.937 65.8362 152.548 64.9497 153.493 64.0077C154.437 63.0104 155.243 62.2347 155.91 61.6806L156.16 61.0157C156.493 60.8495 156.827 60.6555 157.16 60.4339C157.549 60.2123 157.938 60.1015 158.327 60.1015C158.772 60.1015 159.161 60.2123 159.494 60.4339C159.883 60.6555 160.272 60.8772 160.661 61.0988C160.661 61.3204 160.661 61.5975 160.661 61.9299C160.717 62.207 160.745 62.484 160.745 62.761C160.745 63.6476 160.495 64.4787 159.994 65.2544C159.494 66.0301 158.994 66.8335 158.494 67.6647C157.994 68.4958 157.744 69.5208 157.744 70.7398C157.744 70.906 157.744 71.2939 157.744 71.9034C157.799 72.4575 157.883 73.0116 157.994 73.5656C158.161 74.0643 158.411 74.3137 158.744 74.3137L161.411 72.9007H161.578C161.689 72.5683 161.884 72.2636 162.162 71.9865C162.495 71.7095 162.856 71.5709 163.245 71.5709L163.329 71.6541C163.329 71.9311 163.079 72.3467 162.578 72.9007C162.134 73.4548 161.634 73.9812 161.078 74.4799C160.578 74.9786 160.217 75.3387 159.994 75.5603C159.772 75.6157 159.522 75.6712 159.244 75.7266C158.966 75.7266 158.688 75.782 158.411 75.8928L158.161 75.4772C156.938 75.3664 155.91 74.9509 155.076 74.2305C154.298 73.4548 153.909 72.4575 153.909 71.2385C153.909 70.8506 153.993 70.158 154.159 69.1607C154.326 68.1079 154.521 67.0829 154.743 66.0855C155.021 65.0882 155.215 64.3956 155.326 64.0077C154.66 64.451 154.021 65.1436 153.409 66.0855C152.798 66.9721 152.242 67.7201 151.742 68.3296C151.186 68.5512 150.603 69.133 149.992 70.0749C149.436 70.9615 148.852 71.9588 148.241 73.067C147.63 74.1197 147.019 75.0617 146.407 75.8928C145.796 76.6685 145.157 77.0564 144.49 77.0564Z" fill="#031926"/>
<path d="M178.48 80.3809C177.702 80.3809 177.091 79.993 176.647 79.2173C176.202 78.4416 175.98 77.7213 175.98 77.0564C175.98 76.059 175.98 75.0894 175.98 74.1474C176.035 73.1501 176.119 72.1804 176.23 71.2385L176.063 71.1554C176.341 70.4351 176.674 69.5208 177.063 68.4127C177.508 67.2491 177.73 66.3903 177.73 65.8362C177.452 66.1132 177.175 66.418 176.897 66.7504C176.619 67.0275 176.369 67.3322 176.147 67.6647C175.758 68.0525 175.396 68.4958 175.063 68.9945C174.785 69.4931 174.424 69.9641 173.979 70.4074C173.312 70.5736 172.701 71.0723 172.145 71.9034C171.59 72.6791 170.951 73.4271 170.228 74.1474C169.561 74.8677 168.617 75.2279 167.394 75.2279C167.005 75.2279 166.505 75.2002 165.894 75.1448C165.338 75.034 164.921 74.8677 164.643 74.6461C163.921 74.4799 163.393 74.286 163.06 74.0643C162.782 73.7873 162.56 73.2886 162.393 72.5683L162.726 71.4878L162.476 70.8229C162.754 69.9364 162.949 69.2992 163.06 68.9114C163.226 68.5235 163.449 68.1911 163.727 67.914C164.06 67.637 164.588 67.2214 165.31 66.6673C165.366 66.3903 165.505 66.1964 165.727 66.0855C166.005 65.9193 166.255 65.8085 166.477 65.7531L166.561 65.3375L167.394 64.3402L167.644 64.5064L168.144 63.7584C168.533 63.4813 168.922 63.3151 169.311 63.2597C169.756 63.1489 170.173 62.9827 170.562 62.761C170.673 62.3178 171.006 61.9022 171.562 61.5144C172.173 61.1265 172.785 60.7386 173.396 60.3508C174.007 59.9629 174.34 59.6028 174.396 59.2703L174.729 59.3534L176.147 58.4392L176.563 58.6054L177.814 57.8574L179.314 57.7743L179.564 58.0236C179.564 58.4115 179.286 58.8271 178.731 59.2703C178.23 59.6582 177.786 59.8244 177.397 59.769C176.397 59.9906 175.23 60.5447 173.896 61.4313C172.562 62.3178 171.256 63.3705 169.978 64.5895C168.756 65.7531 167.728 66.9998 166.894 68.3296C166.06 69.604 165.644 70.7952 165.644 71.9034C165.644 72.9562 166.199 73.4825 167.311 73.4825C168.144 73.4825 169.172 73.0393 170.395 72.1527C171.618 71.2108 172.757 70.158 173.813 68.9945C174.868 67.8309 175.563 66.889 175.896 66.1687L177.314 65.0882C177.48 64.5895 177.925 64.0077 178.647 63.3428C179.37 62.6225 179.842 62.013 180.064 61.5144C180.287 61.1265 180.398 60.7663 180.398 60.4339C180.453 60.046 180.731 59.7967 181.231 59.6859C181.565 59.3534 181.926 58.9933 182.315 58.6054C182.759 58.2176 182.926 57.7466 182.815 57.1925C183.093 56.8047 183.371 56.4168 183.649 56.0289C183.982 55.6411 184.26 55.2532 184.482 54.8654H184.732L185.149 54.5329V54.4498H185.566L185.816 54.0343L185.732 53.12L186.149 52.8707L186.066 52.6213C186.066 52.5659 186.177 52.372 186.399 52.0396C186.622 51.6517 186.844 51.2638 187.066 50.876C187.288 50.4881 187.4 50.2388 187.4 50.128C187.4 49.5739 187.177 49.2968 186.733 49.2968C186.566 49.2968 186.372 49.3246 186.149 49.38C185.983 49.4354 185.816 49.4908 185.649 49.5462L185.566 49.1306L189.233 45.5568V45.4737C189.9 44.975 190.512 44.4486 191.067 43.8945C191.678 43.2851 192.345 42.7587 193.068 42.3154C193.623 42.4816 194.263 42.6756 194.985 42.8972C195.763 43.1188 196.319 43.5344 196.652 44.1439L196.819 45.2243V45.3906C196.819 45.6122 196.43 46.194 195.652 47.1359C194.874 48.0779 193.901 49.186 192.734 50.4604C191.567 51.7348 190.373 52.9815 189.15 54.2005C187.983 55.4195 186.983 56.4445 186.149 57.2756C185.371 58.1068 184.927 58.5223 184.816 58.5223C184.76 58.9102 184.649 59.3257 184.482 59.769C184.371 60.1569 184.26 60.5724 184.149 61.0157C183.704 61.1265 183.315 61.4035 182.982 61.8468C182.704 62.2901 182.426 62.7056 182.148 63.0935L182.231 63.2597C182.231 63.4259 182.009 63.9523 181.565 64.8389C181.12 65.7254 180.592 66.8335 179.981 68.1633C179.37 69.4931 178.842 70.9061 178.397 72.4021C177.953 73.8427 177.73 75.2279 177.73 76.5577C177.73 77.1672 177.814 77.8044 177.98 78.4693C178.203 79.1896 178.508 79.7714 178.897 80.2146L178.48 80.3809Z" fill="#031926"/>
</svg>
